<?xml version="1.0" encoding="utf-8"?>
<!-- Generator: Adobe Illustrator 23.0.0, SVG Export Plug-In . SVG Version: 6.00 Build 0)  -->
<svg version="1.1" id="Ebene_1" xmlns="http://www.w3.org/2000/svg" xmlns:xlink="http://www.w3.org/1999/xlink" x="0px" y="0px"
	 viewBox="0 0 955 650" style="enable-background:new 0 0 955 650;" xml:space="preserve">
<style type="text/css">
<![CDATA[
	.st0{fill:#f768a1;stroke:#676767;stroke-width:0.75;}
	.st1{fill:none;}
	.st2{font-family:'Arial';}
	.st3{font-size:14.5px;}
	.st4{font-family:'Arial';}
	.st5{font-weight:bold;}
	.st6{font-size:50px;}
	.st7{fill:#FFFFFF;}
	.st8{fill:none;stroke:#000000;}
	.st9, .hide{display:none;}
	.show{display:inline;}
	.st10{font-size:12px;}
	.st11{font-size:10px;}
	.st12{fill:none;stroke:#676767;stroke-width:0.75;}
]]>
</style>

<g id="districts" class="novalue">
	<path id="Liesing" class="st0" d="M107.9,520.3l1.9,0.9l0.5,0.2l1.2,0.7l2.2,1l1.2,0.7l0.5,0.2l0.5-0.5v-1l-0.7-1.9l2.2,0.5h1
		l2.2,2.2l0.7,1l2.9,2.9l4.6,4.3l1-1l1.4-1.4l1.7-1.4L144,521h0.2l1.4-1l9.6-5.5l5.5-3.1h0.2l2.2-0.7l7-2.4l1.7-0.5h0.2v-0.2
		l0.7-0.5l7-6.2l2.6-0.5h0.7l1.2-0.2l7.9,1l3.8,2.2l3.6,1.9l2.9,1.9l6.5,4.1l2.4,1.7l0.5,0.2l0.2-0.7l3.1-5.3l4.1-6.7l2.6-4.6
		l1.2-1.9l0.5-0.7l2.2,2.2l0.2,0.2l1.2,1.2l-1,1.2l-1.2,2.2v0.2l-1.2,1.7l1,0.7l2.6,1.7l1.9-0.2l1.9-0.2l2.9-0.7h0.5l0.2-0.2h0.2
		l0.5,1.2l0.2,0.5l0.2,0.2l1.4,4.3l0.7,2.4h0.2h0.2v-0.2l0.7-0.2l-0.2-0.7l4.3-2.4l3.4-1.7v-1.2V503v-1l0.2-5.5v-0.2l0.2-0.5v-0.2
		v-0.2v-0.2v-0.2l0.2-0.2v-0.5l0.5,0.2h0.2l0.7,0.2l4.3,0.7l2.9,0.2l-0.5,0.5l-0.2,0.5l-0.2,0.2l-0.2,0.5l-0.2,0.2l-0.2,0.5
		l-0.2,0.2l-0.2,0.5l-0.2,0.5l-0.2,0.2l-0.2,0.5l-0.2,0.2l-0.2,0.5l-0.2,0.5v0.5l-0.2,0.2v0.2l-0.5,1.2l-0.5,1.2l-0.5,1l-1,2.6
		l2.4,0.7l6.7,2.9l2.6-2.9l0.7-0.5V508l1.2-1.2l0.7-0.5l1.4-1.4l0.7-0.5l0.7-1l0.7-0.5l0.2-0.2l1.7-1.4l0.2-0.2l1.7-1.2l0.7,0.2
		l0.2,0.2l1.4,0.5l0.2,0.2l0.7,0.2h0.5l0.5,0.2l0.7,0.2l1,0.2h0.7l0.5,0.2l1.2,0.2h0.5h0.2l2.6,1.2l0.7,0.2h0.5l0.7,0.2l0.5,0.2
		l1,0.2l2.9,0.5l2.4,0.5l2.2,0.5l1.2,0.2h0.2l-0.2,1.2v0.7h0.5l1.2-0.5h0.7l2.4-0.7l0.2,2.2l0.2,1.4h0.5l4.1-0.7h0.2v-0.2l0.2-0.2
		v-0.2l0.2-0.2v-0.2h0.2h1.7l1.4,0.2l1.4,0.2l5.5,1.7l1.4,0.7l1.2,0.2l1.2,0.7l1.2,0.5l1,0.7h1l0.2-0.2l0.2-0.5l0.2-0.2l0.5-0.5
		l0.2-0.2l0.2-0.5l0.7-0.7l1.4-1.7l2.4-2.4l2.2-2.4l1.2-1.4l1.9,4.8l0.7,1.4l0.7,2.4l1.2,3.4l0.7,1l0.5,1l0.2,0.2l0.2,0.5l0.2,0.2
		l1,1l1,0.5l1,0.7l1.2,0.7l1,0.2l2.4,0.7l0.7,0.2l3.1,0.7l5.3,1.4l3.1,0.2l4.1,0.2l3.8,0.2l5.8,0.2l2.2,0.2h3.1h1.2l1.2,0.2l0.7,0.2
		l0.5,0.2l1.4,0.2l0.7,0.2l6.2,2.4l6.2,2.2l3.4,1.2l2.6,1.2l5,1.9h0.2h0.2h0.5l2.9,1l1.9,0.7l-2.6,8.4v0.2l-2.9,6.7l-1.7-0.5
		l-0.7-0.2l-0.7-0.7l-0.2-0.2l-0.2,0.7l-0.7,1.9l-1,2.6l-1.2,3.1l-1.4,3.8l0.5,0.2h0.2h0.5v0.2l-0.7,1.9l-2.2,5.8l-0.5,0.2l-2.6,6.2
		l-0.2,1.7l-0.5,1l-0.7,3.6h-0.2h-0.5l-0.7,3.6v0.2l-1,4.1h-1.9l-1.9-0.2l-2.2-0.5l-4.3-0.5h-0.5l-0.2-0.2h-0.2h-0.5l-2.9-0.5
		l-0.2-0.2H376h-0.5l-0.2-0.2l-0.2-0.2l-0.2-0.2v-0.2l-4.1-2.4l-1-0.7l-0.7-0.2l-3.1-2.2l-0.7-0.5H365l-0.5-0.5l-0.2-0.2l-1-1h-0.2
		l-0.2-0.2l-0.2-0.2h-0.2h-0.2v-0.2l-3.6-0.7l-3.8-1h-0.2h-0.2l-0.5-0.2H353l-4.3-1.4l-1.7-0.7l-0.5-0.2l-3.1-1l-3.6-1.2h-0.5
		l-1.7-0.7l-3.4-1l-2.9-0.7l-3.6-1.2l-1.7-0.5l-0.2-0.2l-1.4-0.5l-4.8-1.4l-2.9-1h-0.2H316l-2.6-0.7l-0.2-0.2h-1l-0.5-0.2l0.7,4.3
		l-0.2,1l-0.7,1.4l-0.5,1l-0.7,1.9l-2.2,4.8l-0.5,1l-1.2,3.6l-2.4,7.2l-1,2.6l-1,2.9l-0.5,0.7l-0.2,1l-0.5,1.4v0.2l-0.7,2.2
		l-0.5,1.2l-2.9-1.2l-1-0.5l-1.7-1l-2.6-0.5l-0.7,0.2v0.5l-0.2,1.2l-0.2,1l-0.2,0.5l-1,4.6l-0.2,2.2v0.5l-0.5,2.6l-0.2,3.1l0.2,1
		v0.2l-0.7,0.2h-0.5l-0.5,0.2l-1.7-0.2l-1.7-0.2h-0.7l-2.9-1.7l-1.7-1l-0.5-0.2l-4.3-3.4l-1-0.7l-1.4-1.4l-1.4-1.2l-1.4-1.4
		l-0.7-0.7l-1.7-2.4l-0.5-0.2l-0.2-0.5l-0.5-0.2l-1.4-0.7l-1.7-0.7h-0.2h0.2l0.2-1.7l0.5-2.2v-0.7l-2.2-7.7h-0.2l-2.4-0.2l-4.3-1
		l-6.5-1.4l-4.3-0.7l-1.7-0.5H240h-0.2l-1.7,0.2h-0.7l-1.7,0.5h-0.2h-0.2v0.2h-0.2v0.2l-0.7,0.5H234l-0.2,0.2h-0.2l-0.5,0.2
		l-0.2-0.2h-0.2l-4.8-4.3l-0.7-0.7h-0.2l-0.7-0.2h-1.2l-1-0.2l-1.2-0.2h-0.5l-1.2-0.5l-1-0.2l-2.4-1.2l-1.2-0.7l-1.2-0.7l-0.7-0.2
		l-0.5-0.2h-0.5l-3.8-0.7l-1.7-0.2v0.2v0.2h-1h-0.5l-0.7-0.2h-0.7h-0.7h-1.2h-1l-1,0.2l-1,0.2l-6,3.4l-0.2,0.2l-0.7,0.5l-0.2,0.2
		l-0.5,0.5l-1.2,1.2l-0.7,1.2l-0.5,0.5l-0.5,0.2l-3.8,2.4h-0.2h-0.2h-0.2h-0.5l-0.2-0.2h-0.2l-2.2,0.5v0.2l-0.2,0.2v0.2h-0.2
		l-0.2,0.2h-0.2l-1.9-0.2l-0.5-0.2h-0.2l-3.6-0.7h-1.7l-1.9-1l-1-0.7l-1.9-0.7l-2.6-0.7l-4.1-1h-0.2l-4.3,0.7l-3.1,0.5l-1.2,0.2
		l-5,1l-1.4,0.2h-0.2l-1.4,0.2l-2.2,0.7l-2.4,0.5l-1,0.5l-5,3.1l-0.2,0.2l-1.7,1.2l-0.7,0.7l-1.4,1.2l-1.7,0.5l-2.2,1.2l-0.5,0.2
		l-1.9,1h-0.5l-0.2,0.5h-0.2l-0.2,0.2l-0.2,0.2l-0.5,0.5l-0.2,0.2l-0.2,0.2l-0.2,0.2l-1,1l-1,0.7H119l-1.9,1.2h-0.2h-0.2h-0.2
		l-0.2,0.2l-0.2-0.2l-2.6,0.2h-0.7l-0.5,0.2h-0.2h-0.5l-0.2,0.2h-0.2l-0.2,0.2l-1.2,0.5l-0.7,0.2L108,605l-0.5,0.2l-0.2,0.5
		l-0.2,0.2v0.2l-2.9-1.9l-4.1-2.4l-0.7-0.2h-0.2l-0.5-1.7l0.7-0.7l1.2-0.2l1.7-1.2l2.4-1.7l0.5-1.4l0.2-1l2.4-0.5l2.6-1l2.2-1
		l2.4-0.5l2.6-0.5l0.5-0.2l2.2-0.2l1.9-0.5l5.3-1.9l2.2-1l1.4-0.7l0.7-0.2l0.2-0.2l0.5-0.2l3.4-0.7l8.4-2.2l0.5-2.4l0.5-3.4
		l-1.2-0.2l-0.7-0.2l-1.7-0.7l-0.2-0.2l-0.2-0.2l-0.7-0.7l1.9-1.7l1-0.7l1.4-4.3H144l-4.8,0.7l-3.1,0.2l-3.1,0.5l-3.8,0.5l-0.2,0.2
		h-0.2h-0.2h-2.2h-0.5l-0.5,0.2h-0.5h-1.2l-0.7,0.2l-3.1,0.7l-2.6,0.7l-1.7,0.5h-0.5h-0.2l-0.7,0.2h-0.5h-0.2H112h-1l-0.5-0.2
		l-0.2-0.7v-0.5l0.7-0.7l0.7,0.2l0.5,0.2v-0.5l-1.2-4.3l-0.2-0.7l-0.2-0.2l-0.5-0.2l-0.5-0.2l-0.2-0.5V563l-0.2-1.2l-0.7-1.7
		l-1.2-1.9l-0.7-0.7l-0.5-0.2l-1-0.2v0.2h-0.5l-0.2-0.2l-2.4-0.7v-0.5l-0.7-0.7v-1v-0.2l-1.7-2.6l-1.2-3.6l-0.7-1l-0.2-0.5l-0.5-0.2
		l-0.2-0.2l-1-1.4l-1.2-2.2l-0.2-1.4v-0.7v-0.2l-0.5-0.5l-0.2-0.5h-0.2l-1.4-0.7l-1-0.7l-1.4-0.5l1-4.8l1.4-0.7l0.4-0.4l1.9-2.2
		l0.3-0.4l0.5-0.5l1-0.7l1.2-0.7h0.2l0.5,0.5h0.7l4.3-0.7l2.9-1l1.2-1.2l0.2-0.5l0.2-0.5v-0.7v-1l0.2-0.7L107.9,520.3z"/>
	<path id="Donaustadt" class="st0" d="M602.3,165.8l1.4,1l2.9,1.7l1.2,0.7l1,0.5l1.2,0.5l5,1.2V171l-0.2-1.4l-0.2-0.2l0.2-1.2
		l0.2-1.9V166l0.7-2.2l0.2-0.5l0.2-0.7l0.5-1.2l0.7-1.4l1.2-3.6l0.5-1.7l0.2-1V153v-0.7l-0.7-2.6l-0.7-2.2l-0.2-0.5v-0.2l0.2-1
		l0.2-1.4v-0.5v-2.2l-0.2-2.2l-0.5-0.2l-0.5-0.2l-0.2-0.5l-0.2-1l-1.2-6.2l-0.7-7.2V123l-0.2-1.9v-1.7v-0.2l0.2-1.9l0.5-2.4l0.2-1.2
		l-0.2-0.5V113l-0.2-0.2l1,0.2h0.2l4.6,0.7h0.7l1,0.2h0.5l1.9,0.2l5.8,0.5h0.7l2.4,0.2l4.8,0.2h0.2h0.7l2.6,0.2h1l1.4,0.5l-0.5,1.7
		l7.2,2.6l8.4,3.4l3.1,1.7l2.4,1.4l0.5,0.2l1,0.5l1.9,0.7l1.2,0.5l1.9,0.7l2.4,1l3.1,1v0.2l-0.7,2.2l0.2,0.2l1.9,1.2l1.2,0.7
		l0.5,0.2l-1.2,4.3l-0.7,2.4l-1.2,3.6l-0.7,2.2l-1.2,0.5l-1.2,1l-0.2,0.2l-1.7,3.4l-3.4,6.2l-0.2,0.2l-1,2.4l-3.1,8.4l1.2,0.2h1
		l2.4,0.7l0.5,0.5l3.6,2.6l2.4,1.7l2.2,1.2h0.2l1,0.5l-0.2,1l-0.5,1.4l-1.7,6.7l5,1.2h0.5l6.7,1.4l1,2.2l1,2.2l1.2,2.6l2.2,1l2.4,1
		l2.6,1.2l3.1,0.7l2.4,1h0.2l4.1,1.2l1.2,0.2l4.6,1l1-2.4l2.6-1.2l2.6-1.2l2.4-0.7l3.1-0.7l3.1,0.7l1.2,0.2l1.9,0.2l9.8,2.4
		l-1.4,3.8l-1.4,3.6l-1.9,6l-2.4,8.2l-1.2,3.6l-0.2,1.4l-0.5,1.2v1.2l-0.7,4.3l-0.7,4.8l-0.5,4.6l-0.2,1.7v0.2l-0.7,2.4l-1,2.6
		l-0.7,2.6l-0.5,3.1l-0.5,3.4h2.6h1.2h2.6h5.5h2.4l1.4,0.2h1.2l-0.2,3.1l-0.2,1.4l-0.2,2.4l3.1,1.4l2.9,1l3.6,1.4l-1,2.9l-2.2,7.9
		l-1.2,4.1l-1.2,3.6l-1,4.3l-1,4.1l-0.2,0.2l-0.5,3.4l-0.7,2.9l-0.5,2.9l-0.7,3.4l-0.7,2.9l-0.5,2.9l-0.7,3.4l-0.2,3.1l0.2,1.4
		l0.2,1.9l-0.2,3.8l-0.5,3.6l-0.7,3.6l-1,3.6l-1.2,3.4l-1.2,3.6l-1.2,2.6v0.2l-1,1.9l-0.5,0.7l-2.4,4.8l-1.2,2.2l-0.5,0.7l-0.7,1.4
		v0.7l-0.5,1l-1.4,1.9l-0.5,0.7l-1,1.9L725,371l-0.5,1.9l-0.5,1.7l-0.2,0.5v1.7v0.2l-1.2,4.1l-0.5,1.7h-0.2l-0.2,0.7l1,1.9l1.7,2.9
		l0.7,1.4l1.4,3.4l0.7,2.2l0.7,2.4l1.9,5.3l0.2,0.2l1.4,3.4l0.7,3.1l-1.4,3.1v0.2l-0.7,1l-0.5,1l-0.2,0.2l-1.2,2.2l-1.9,6v0.2
		l-0.7,3.6l-0.5,6l1.7,0.5l0.2,0.2h0.2l2.2,0.5l1.7,0.7l0.7,0.7l0.5,0.5l0.2,0.5l-1.4,3.8l-2.4-1.7l-1-0.7l-1-0.7l-1-0.7l-0.5-0.2
		l-1-1l-1.9,10.1l-0.2,1.4l-0.2,1.2l-0.2,1.7v1.4l5.5,6.7l0.7,0.7l1,0.7l1,1l0.5,0.5l-2.4-0.5l-1-0.2l-2.6-1l-2.4-0.7l0.5,3.4
		l4.6,1.7l1,0.5l1-0.5l1-1l0.7-0.7l1-0.2l3.6,0.7l2.9,1.2v-0.5l-1.4-5.3l-0.5-0.5l-0.7-0.5l-2.9-0.5l-0.5-0.2l-0.7-1L731,455
		l-0.5-0.7l0.2-0.7v-0.7l1.2-1.2l1.7,0.2l3.1,0.2l1-0.2l0.7-0.5l0.5-0.7l0.2-1.2l0.7-0.5h3.4l0.7,0.2l3.1,2.2l0.2,0.2l0.5,0.7v0.2
		l-0.2,1.2l0.7,4.3l0.7,2.2l0.5,1l0.2,1l0.2,1v1.2l-0.5,2.6l-0.7,0.5l-1.2,0.5l-1.9-0.2h-0.5l-1.7,0.2h-0.7h-0.2l-1-0.7l0.2,0.5
		l0.2,2.2l0.7,1.4l0.2,0.7l1.2,4.3l0.7,4.1l1.9,1l0.5,0.5l1.2,1.4l-0.7,4.1l0.2,0.7l0.5,0.5v0.2l3.6,3.6l1.9,2.6h0.7h1h2.6l1.9,1
		l-1.2-1.4l-2.2-3.1l-1-1.2l0.2-0.5l0.2-1l0.7-0.2l1.9-0.5h1.4l1.9,0.5l1,0.5l1.9,2.2l0.5,1l0.5,0.5l0.7,1.7v0.2l0.5,1l0.2,0.5
		l1.2,1.2l1.7,2.6l1-0.5l0.7-0.5l0.7-1l0.7-1.7l1-1.2l1-0.5l2.2-1l1-0.7l2.9-1.9h0.2l1.4-0.5h1.7l1,0.2l0.5,0.2l0.5-0.2l0.5-0.5
		l0.5-0.2h1.2l3.8,1.7l1.9,1.7l0.5,0.5l1.7,1.7v0.5l1.4,2.6l0.2,1.7l0.5,2.6v1.2l-1.4,3.8l-0.2,1l-1.4,2.6l-1.2,1.4l-0.2,0.2
		l-0.7,0.7l-0.5,1l1.2,1.9h0.2l0.7,0.5l0.7,0.5l1,1l1.2,1.7l0.2,0.2l0.2,0.7l0.7,0.7l1,1.9l0.7,2.2l0.2,2.6l-0.2,1.4v0.2v0.7v1.7
		l-1,13.2v0.7l-0.2,3.6v0.5v4.1l-0.2,2.9v1.9l-0.2,3.1v0.5v0.5l-0.2,3.6l-0.2,2.4l-0.5,2.4v0.5l-1.9-0.7l-7.4-2.9l-1.4-0.7l-4.1-1.7
		l-2.9-1.2h-0.2l-1-0.5h-0.2l-3.6-1.4l-7.7-2.9l-1.2-0.5l-0.5-0.2l-0.5-0.2l-0.7-0.2l-2.4-0.7h-0.2l-7.2-2.4H755l-0.5-0.2l-2.4-0.7
		l-1.2-0.2l-0.7-0.2l-0.5-0.2l-0.7-0.2l-1.2-0.2l-2.9-1l-1.4-0.5l-1.7-0.5l-0.2-0.2l-1-0.2l-1-0.2l-0.5-0.2l-0.7-0.2l-1-0.5
		l-0.7-0.2l-0.2-0.2L736,550l-0.5-0.2h-0.2l-0.5-0.2v-0.2h-0.2l-0.2-0.2h-0.2l-0.2-0.2l-1-0.5l-1-0.7l-1.4-1l-0.2-0.2l-0.5-0.2v-0.2
		h-0.2l-0.2-0.2l-0.2-0.2l-1-1l-1.2-1.2l-1-1l-1.2-1.2l-3.6-3.8l-4.6-4.6L705.1,521l-1.9-2.2h-0.2l-0.2-0.5l-0.5-0.2l-0.7-0.7
		l-0.5-0.5l-0.5-0.2l-0.5-0.5l-1.4-1h-0.2l-2.2-1.7l-1.7-1.2l-0.7-0.5l-1.4-0.7l-7.2-4.6l-1-0.7l-0.7-0.5l-5.5-1.4l-0.2-0.2l-13-8.4
		l-1.7-1l-3.4-2.2l-8.2-5.5l-1.7-1.2l-2.2-1.4l-1.7-1l-0.5-0.2l2.9-2.9l-0.5-0.5l-1.9-1.7l-4.6-3.8l-0.5-0.5l-1.9-1.7l-2.2-1.9
		l-1.7-1.4l-1.9-1.9l-7.7-7l-4.3-4.3l-0.5-0.2l-0.2-0.5l-1.7-1.4l-9.6-9.1l-1.9-2.2l-12-11.5l-11-10.8l-1.4-1.7l-0.5-0.2l-1.7-1.9
		l-7-7l-6-6l-7.2-7.2l-5.8-6l-0.7-0.5l-6.5-6.7l-5.8-5.8l-7.2-7.4l-5.5-5.8l-7.4-7.9l-4.8-5l-8.2-8.9l-4.3-4.3l-5.5-6.2l-3.4-3.6
		l-2.9-3.1l-10.1-11.3l-2.2-2.2l-1.2-1.4l-3.4-3.8l-0.2-0.5l-1.7-1.9l-0.5-0.2l-3.6-4.1l-2.2-2.9l-1.9-1.9l-1.4-1.9l-1.9-2.4
		l-1.9-2.4l-2.4-2.9l-1.2-1.7l-0.5-0.5l-1-1.4L454,279l1.2-1l8.9-7.2v-0.2l-0.7-1l-0.7-1.7l-0.2-0.5v-0.2V267v-0.2v-0.2v-0.2v-0.2
		v-0.2h0.2v-0.2v-0.2h0.2v-0.2h0.2v-0.2h0.2l0.2-0.2h0.2h0.2h0.2h0.2h0.2h0.2h0.2l0.2,0.2h0.2h0.2h0.2h0.5h0.2h0.2h0.2v-0.2h0.2h0.2
		h0.2h0.2h0.2h0.2h0.2l0.7-0.2l1.7-0.5l2.2-0.7l0.5-0.2l0.2-0.2h0.2l0.2-0.2h0.2l0.2-0.2h0.2V262h0.2l0.2-0.2l0.2-0.2l0.2-0.2
		l0.2-0.2l0.5-0.2l0.2-0.2l0.2-0.2l0.2-0.2l0.2-0.2l0.5-0.2l1.2-1.4l0.5-0.7l0.5-0.7l1.2-1.9l0.5-0.7l0.5-0.7l0.2-0.2l2.9-0.7l6-1
		l1.7-0.2l1.9,0.2h0.2h0.7h0.2h0.2h0.2h0.2h0.2l1.4-0.2l1.9-0.2l0.5-0.2h0.2h0.2h0.2h0.2h0.2h0.2l1,0.2l0.7,0.2l2.4-0.5l3.4-0.7h0.2
		l0.2-0.2h0.2v-0.2h0.2v-0.2V249v-3.1v-0.2v-0.5v-2.6l0.2-4.6v-0.2l0.2-3.6v-0.2l0.5,0.2l2.2,1l0.2,0.2h0.2h0.2l0.2,0.2h0.2l0.5,0.2
		l0.2-0.5v-0.5l0.5-1.2l0.2-0.5v-0.7l0.2-0.2l0.2-1.2l0.7-1.9l1.9-4.1l0.5-1l1-2.2l4.1-7.9l0.7-1.2h0.2h0.2h0.2h0.2h0.2h0.2h0.2h0.2
		h0.2h0.2h0.2l0.5-0.2h0.5v-0.2h0.2h0.2l0.5-0.2l0.7-0.5l-2.4-5l-0.5-1l6.2-1.2h0.2h0.2h0.2h0.2h0.2l1.7,0.2h0.2l0.7,0.2l2.2,0.2
		h0.2h0.5l1.9,0.2h4.1l1.2-0.2l0.2,0.2l0.2,0.5l0.2,0.2l0.2,0.2l1.9,2.6l2.6,3.6l2.2-4.6l1.2-2.6l1.9-3.8l1-0.7l0.7-0.7l21.1-19.2
		l0.7-0.5l0.2-0.5l3.4-2.9l0.2-0.2l0.5-0.5l2.2-1.7l0.5-0.2l0.7-0.5l0.7-0.5l0.7-0.5l1-0.7l0.2-0.2l0.5-0.2l0.5-0.5l0.5-0.5l0.2-0.5
		l1-1.2l0.7-0.7l2.2-1.9l1.9-0.7h0.2h0.2L602.3,165.8L602.3,165.8z"/>
	<path id="Floridsdorf" class="st0" d="M372.4,142.2l4.8,1.2l1.2,0.2l4.8,1l0.7,0.2l1.7,0.2l0.7,0.2l2.4,1.2l2.6,1.2l1.7,1l0.5,0.2
		h2.2l5-1.9l-2.6-1l-1.4-1.2l-0.7-1.2l-0.7-1v-0.5l-0.7-1.4l-0.2-1l-0.7-2.2l-0.2-1.4V135l0.2-1.2l0.2-1l0.2-0.7l0.2-0.5l0.7-0.5
		l1.9-0.7l1.2-0.5l1.2-0.5l1.4-0.2l1.2,0.2h0.2h0.7l1.7-0.2l1-0.2l0.7-0.2l0.7-0.2l1.9-0.2h1.7h1.7h1l0.7-0.2l0.7-0.2h0.2v-0.2
		l0.5-0.5l0.2-0.5l0.7-1.9l0.5-1.2l0.2-1v-0.5v-2.2v-0.7l-0.2-2.2l-0.2-0.5l-0.7-1.9l-0.2-0.5l-0.5-1.2l-0.2-0.2l-1.9-3.6l-0.5-0.7
		l-1.2-1.7l-0.2-0.2l-0.2-0.2l-0.5-0.5l1-1.7l0.7-1.2l2.4-4.8l1.9-4.3l0.5-1l0.7-2.2l0.7-1.9l0.2-0.5V88l2.2,0.2h0.2l0.2,0.2h0.5
		h0.2l1.2,0.5l1,0.2l0.2,0.2h0.5l2.6,0.7h0.2h0.5h0.5l2.4-1.4l-0.5-0.2v-0.2l-0.2-0.2l-1.4-1l-1.4-0.7l-0.5-0.2l-0.5-0.2l0.2-0.7
		v-0.2l0.2-0.7l0.2-0.5l0.2-0.2v-0.2l0.2-0.2v-1.2l-0.5-0.5l-2.4-2.9l0.2-0.2v-0.2v-0.2l0.2-0.5l0.7-1.7l0.5-2.6l-0.7-4.1l-1-2.6
		l-0.7-1.4v-4.3l-1-0.2l-1.4-0.2l-1.7-3.6v-5l0.2-1.9l1.9-5.3h0.2l3.6-3.8l1.9-1.9l0.5-0.5l0.2-0.2l0.2-0.5h0.2l1-0.2l1-0.2l2.2,0.5
		l3.8,1.2l1.4-3.6l-2.4-0.2v-1.9l4.8,0.5v-1l-0.2-1.7l-0.2-1.7l1.4,0.2h1.7h0.2l1.2-0.2h0.2l0.7-0.2l1-0.2h1.4l0.2,2.9v2.4v0.2v1
		v0.7l-0.2,0.5l-1.2-0.2l-0.7,2.2l5.5,2.9l0.7,0.5l1.7,0.5l2.4,1l2.6,1l3.4,1.4h0.5l0.5-1.2l0.2-1l0.5-1.4l1-2.6l0.2-0.7l0.2-0.5
		l3.4-1.4l8.2-3.4l0.2-0.2l1.7-0.5l3.4-1.4l1.4-0.5l6.2-1.9l1.7-0.2l1.7-0.2l2.6,0.2h1.4l2.2,0.5l4.1,1.2l1.7,0.7l1.9,1.2l1.4,1
		l0.2,0.2l4.8,3.1h0.2l3.6,2.2l2.9,1.7l1.2,0.7l2.2,1.2l1.9,1l2.6,1.2l0.5,0.2l1.7,0.7l0.5,1.7l0.5,2.9v2.4l-0.5,2.9l-0.2,4.6
		l0.2,7.2l1.2,2.2l1,3.4l0.2,1.4l0.5,1.7l1.4,7.9v0.7V87v2.6v1V94v3.8l0.2,7.2v3.6v2.6v1v2.2v2.9v0.2l3.4,2.2l1.9,1.2l2.2,1.7
		l1.4,1.2l3.6,2.6l4.6,3.1l1.9,1.2l3.1,2.2l0.7,0.7l1,0.7l1.4,1.2l1.4,1.2l1,0.7l2.4,1.4l0.2,0.2l0.7,0.2l1.4,1.2l2.6,1.7l0.2,0.2
		l1.9,1.2l1.9,1.2l2.4,2.2l3.6,2.9l4.1,3.1l1.4,1.2l0.5,0.2l0.2,0.2l0.7,0.7l2.9,1.9l4.1,2.6l2.4,2.2l0.2,0.5l4.1,1.7v1l0.7,0.5
		h-0.5h-0.2h-0.2l-1.9,0.7l-2.2,1.9l-0.7,0.7l-1,1.2l-0.2,0.5l-0.5,0.5l-0.5,0.5l-0.5,0.2l-0.2,0.2l-1,0.7l-0.7,0.5l-0.7,0.5
		l-0.7,0.5l-0.5,0.2l-2.2,1.7l-0.5,0.5l-0.2,0.2l-3.4,2.9l-0.2,0.5l-0.7,0.5l-21.1,19.2l-0.7,0.7l-1,0.7l-1.9,3.8L557,208l-2.2,4.6
		l-2.6-3.6l-1.9-2.6l-0.2-0.2l-0.2-0.2l-0.2-0.5l-0.2-0.2l-1.2,0.2H544l-1.9-0.2h-0.5h-0.2l-2.2-0.2l-0.7-0.2h-0.2l-1.7-0.2h-0.2
		h-0.2h-0.2h-0.2h-0.2l-6.2,1.2l0.5,1l2.4,5l-0.7,0.5l-0.5,0.2h-0.2h-0.2v0.2h-0.5l-0.5,0.2h-0.2h-0.2h-0.2h-0.2h-0.2H528h-0.2h-0.2
		h-0.2H527h-0.2L526,214l-4.1,7.9l-1,2.2l-0.5,1l-1.9,4.1l-0.7,1.9l-0.2,1.2l-0.2,0.2v0.7l-0.2,0.5l-0.5,1.2v0.5l-0.2,0.5l-0.5-0.2
		h-0.2l-0.2-0.2h-0.2H515l-0.2-0.2l-2.2-1l-0.5-0.2v0.2l-0.2,3.6v0.2l-0.2,4.6v2.6v0.5v0.2v3.1v0.2v0.2h-0.2v0.2h-0.2l-0.2,0.2h-0.2
		l-3.4,0.7l-2.4,0.5l-0.7-0.2l-1-0.2H503h-0.2h-0.2h-0.2H502h-0.2l-0.5,0.2l-1.9,0.2l-1.4,0.2h-0.2h-0.2h-0.2H497h-0.2H496h-0.2
		l-1.9-0.2l-1.7,0.2l-6,1l-2.9,0.7l-0.2,0.2l-0.5,0.7l-0.5,0.7l-1.2,1.9l-0.5,0.7l-0.5,0.7l-1.2,1.4l-0.5,0.2l-0.2,0.2l-0.2,0.2
		l-0.2,0.2l-0.2,0.2l-0.5,0.2l-0.2,0.2l-0.2,0.2l-0.2,0.2l-0.2,0.2h-0.2v0.2h-0.2l-0.2,0.2h-0.2l-0.2,0.2h-0.2l-0.2,0.2l-0.5,0.2
		l-2.2,0.7l-1.7,0.5l-0.7,0.2h-0.2h-0.2h-0.2h-0.2H468h-0.2h-0.2v0.2h-0.2H467h-0.2h-0.5H466h-0.2h-0.2l-0.2-0.2h-0.2h-0.2h-0.2
		h-0.2h-0.2h-0.2h-0.2l-0.2,0.2h-0.2v0.2h-0.2v0.2h-0.2v0.2v0.2h-0.2v0.2v0.2v0.2v0.2v0.2v0.2v0.2l0.2,0.5l0.7,1.7l0.7,1v0.2
		l-8.9,7.2l-1.2,1l-1.4-1.9l-1.4-1.7l-2.6-3.4v-0.2l-4.8-6.5l-0.2-0.5l-1.7-2.2l-2.6-3.8l-0.2-0.2v-0.2l-1-1.2l-2.4-3.6l-1.2-1.7
		l-2.4-3.6l-1.9-2.6l-0.2-0.2l-1.2-1.9l-5-7.7l-0.2-0.5l-6-9.8l-0.7-1.2l-10.1-17.8l-1.9-3.4l-0.2-0.2l-0.2-0.5V202l-1.2-1.9
		L385.4,167l-6.7-13l-0.2-0.5l-0.2-0.5l-1.9-3.1l-2.2-4.6L372.4,142.2z"/>
	<path id="Brigittenau" class="st0" d="M404.1,202.5l0.2,0.5l0.2,0.2l1.9,3.4l10.1,17.8l0.7,1.2l6,9.8l0.2,0.5l5,7.7l1.2,1.9
		l0.2,0.2l1.9,2.6l2.4,3.6l1.2,1.7l2.4,3.6l1,1.2v0.2l0.2,0.2l2.6,3.8l1.7,2.2l0.2,0.5l4.8,6.5v0.2l2.6,3.4l1.4,1.7l1.4,1.9
		l-1.9,1.4l-2.2,1.7l-1.7,1.2l0.2,0.2l-5,3.8l-0.2,0.2l-8.9,7l-0.5,0.2l-0.7,0.5l-1.2,1.2h0.2l1,1.4l1.2,1.4l0.5,3.4l-0.5,1
		l-6.2,5.3l-2.6,1.2h-0.2H425h-0.2V310l-0.2-0.7l-3.1-5.8l-1.7-1.2l-2.2-1.2l-3.4-2.4l-6.2,3.1l-1.9,1l-1.7,0.7l-0.7,0.2l-3.1,4.6
		l-0.2,0.2v1.2l-1.2,0.5l-2.4,0.7l-2.2,0.7v-0.2v-0.2h-0.2V311v-0.2l-0.2-0.2l-0.5-1.2l-0.2-0.2v-0.2h-0.2v-0.2h-0.2v-0.2l-0.2-0.2
		l-0.2-0.5l-1.4-1.4h-0.2l-1-1l-1-1.2v-0.2h-0.2v-0.2h-0.2v-0.2L388,303v-0.2h-0.2v-0.2l-0.2-0.2v-0.2h-0.2v-0.2l-0.2-0.2v-0.2h-0.2
		v-0.2v-0.2h-0.2v-0.2v-0.2h-0.2v-0.2v-0.2h-0.2v-0.2v-0.2h-0.2v-0.2V299v-0.2h-0.2v-0.2l-2.2-6.5h-0.2v-0.2v-0.2v-0.2V291H383v-0.2
		v-0.2v-0.2l-0.2-0.2v-0.2v-0.2v-0.2l-0.2-0.2v-0.2v-0.2v-0.2v-0.2v-0.2h-0.2v-0.2v-0.2v-0.2V287v-0.2v-0.2v-0.2V286v-0.2v-0.2v-0.2
		V285l0.2-0.2v-0.2v-0.2v-0.2v-0.2v-0.2v-0.2v-0.2v-0.2h0.2v-0.2v-0.2v-0.2v-0.2v-0.2v-0.2l0.2-0.2V281v-0.2v-0.2v-0.2l0.2-0.2v-0.2
		v-0.2v-0.2l0.2-0.5l0.2-0.7v-0.7l0.7-2.2l0.7-1.9l0.5-1.4l0.5-1l0.5-1.2l0.2-0.7l1-2.2l1.4-2.9l2.6-5.5h0.2v-0.2v-0.2l0.2-0.2v-0.2
		l0.2-0.2l0.2-0.5l0.5-0.5l0.2-0.2v-0.2l0.2-0.5l0.5-0.7l0.2-0.2l0.2-0.2l2.2-3.4l0.2-0.5l0.5-0.7l0.2-0.5l0.2-0.5l0.2-0.2l0.2-0.5
		l1.4-2.6l0.5-0.7l0.2-0.5l0.2-0.5V243l0.5-0.5v-0.5l0.2-0.5l0.2-0.7l0.2-0.5l0.2-0.5v-0.5l0.2-0.5v-0.5l0.2-0.5v-0.5v-0.2l0.2-0.5
		v-0.5v-0.5v-0.5v-0.5v-0.7l-0.2-0.2v-0.7l-0.2-1l-0.2-1.2v-0.2l-0.2-0.2l-0.7-1.9v-0.2l-0.7-1.9l-0.2-0.5l-2.2-5.3l-0.2-1.2l-0.5-1
		v-0.5l-0.2-1.4l0.5-0.2V214v-0.2v-0.2l-0.2-1.2h-0.2v-0.2h-0.2l-1-4.8v-1L404.1,202.5z"/>
	<path id="Döbling" class="st0" d="M235.9,215.2l0.7-1.9l0.7-2.2l1.7-1.7l2.9-2.6l1.7-1.7h0.5l2.2-0.7l1.7-0.5h0.7l1.2-1.7l2.6-3.6
		v-1.4l-1.7-1.9l-2.6-3.4l-1-1.2l-2.4,0.2l-1.7,0.7l-1,0.2l-3.6-0.2l-0.7-0.2l-0.7-0.7l-0.2-1.2l-0.2-1l0.2-0.5l0.5-0.2l0.7-0.5
		l0.7-0.5l0.7-0.7l0.7-0.7l0.2-0.5l0.5-2.2l0.5-1.2l0.5-1l0.2-0.5l0.5-0.5l0.7-0.2l2.9-1.2l2.6-1.2l4.1-1.9l0.5-0.2l1.2,0.2l4.1,0.2
		l3.1-1.2l0.7-1.4l1-0.7l1.2-0.5l0.5,0.2l1,0.2h1l-0.5,1l-0.2,0.5l6.2,2.6l1.9,0.2l0.7-0.2l1.4-1l0.5-0.2l0.7-0.5l2.4-0.2l1.2-1
		l1.2-1l1.7-1.4l2.2-1h0.5h1.2l4.1-0.2l1-1l0.2-0.5l1-1.2l1-1.9l3.1-4.3l0.5-0.5l2.4-1.4l2.6-1.4h3.1l0.5,0.2h0.5l0.7,0.2l0.5,0.2
		l0.5,0.2v0.2l0.5,0.2l0.2,0.2l1,0.2l1,0.2h0.7v0.2l4.8,0.7h0.5l1.2-0.2h0.5l2.4-1.7l0.2-0.7v-1.4l0.2-1V155l2.4-4.3l0.5-0.7
		l0.2-0.2l0.2-0.2l1.9-0.7h0.5h0.7h1l4.6-1.9l0.7-0.5l9.8-6.2l3.8-2.4l0.7-0.5l1.4-1.4l-2.2-3.1l-1.4-1.9l-0.5-0.7l-1.9-2.2
		l-1.7-1.9l13.2-4.3l3.4,6.2l0.7,1.2l6.5,12.2l4.8,1l1.7,3.1l2.2,4.6l1.9,3.1l0.2,0.5l0.2,0.5l6.7,13l17.5,33.1l1.2,1.9v0.5
		l-7.9,3.8v1l1,4.8h0.2v0.2h0.2l0.2,1.2v0.2v0.2v2.4l-0.5,0.2l0.2,1.4v0.5l0.5,1l0.2,1.2l2.2,5.3l0.2,0.5l0.7,1.9v0.2l0.7,1.9
		l0.2,0.2v0.2l0.2,1.2l0.2,1v0.7l0.2,0.2v0.7v0.5v0.5v0.5v0.5l-0.2,0.5v0.2v0.5l-0.2,0.5v0.5l-0.2,0.5v0.5l-0.2,0.5l-0.2,0.5
		l-0.2,0.7l-0.2,0.5v0.5l-0.5,0.5v0.5l-0.2,0.5l-0.2,0.5l-0.5,0.7l-1.4,2.6l-0.2,0.5l-0.2,0.2l-0.2,0.5l-0.2,0.5l-0.5,0.7l-0.2,0.5
		l-2.2,3.4l-0.2,0.2l-0.2,0.2l-0.5,0.7l-0.2,0.5v0.2l-0.2,0.2l-0.5,0.5l-0.2,0.5l-0.2,0.2v0.2l-0.2,0.2v0.2v0.2h-0.2l-2.6,5.5
		l-1.4,2.9l-1,2.2l-0.2,0.7l-0.5,1.2l-0.5,1l-0.5,1.4l-0.7,1.9l-0.7,2.2v0.7l-0.2,0.7l-0.2,0.5l-4.8,0.2h-3.6h-0.2h-0.2v0.2h-0.2
		h-0.2v0.2v0.2h-0.2v0.2l-0.7,4.3l-0.5,2.4v0.2v0.2h-0.2v0.7l-0.5,0.7l-0.2,1h-0.2v0.2l-0.2,0.2v0.2h-0.2v0.2h-0.2v0.2h-0.2v0.2H370
		v0.2h-0.2h-0.2v0.2l-0.7-0.7h-0.2l-0.5,0.5l-1-0.5l-1.9,0.5L365,292l-3.4-0.2v-0.2l0.2-1.4l0.2-1.4l0.2-0.5v-1.4l-2.9-0.2v0.2
		l-0.2,1.4l-0.2,0.2l-2.6-0.5h-0.2l-0.2,0.2l-0.2,0.2h-0.5l-4.8-1.2l-4.6-1h-5.5h-3.1V286v-1.2v-7.9h-6.5h-2.9h-0.7h-1H323h-0.5
		h-0.2l-0.5-0.2l-3.4-1.7l-5.8-3.1l-3.1-1.7l-0.7-0.2l-1-0.5l-0.7-0.2h-0.7L306,269h-0.7l-1-0.2h-0.5l-0.2-0.2h-0.2h-0.2l-0.2-0.2
		l-0.2-0.2h-0.2l0.2-0.2v-0.2h0.2l0.2-0.2h0.2l0.2-0.2h0.2l-0.2-1.4l-6.2-2.4l-0.2-0.2h-0.2v0.2h-0.2h-0.2v0.2h-0.2v0.2h-0.2
		l-3.4-1.7l-3.6-1.7l-1.9-1l-0.5-0.2l-1-0.7h-0.2v-0.2h-0.2v-0.2l-2.9-2.6l-0.2-0.5l-0.2-0.2v-0.2l0.2-1v-0.2l-1.9-0.5l-1.4-0.2
		h-0.2l0.2-1v-0.7V250v-0.5l0.2-0.7v-0.5v-0.2h-0.2l-0.2-0.2h-0.2l-2.9-1.9l-1.2-0.7l-1-0.5l-0.7-0.2l-0.7-0.2l-0.5-0.2l-1.4-0.5
		l-0.5-0.2h-0.7l-5-0.5l-2.4-0.5l-3.4-0.5h-0.5l-1.7-0.7l-0.2-0.2l-1.7-0.5l-3.8-1.4l-2.9-0.7h-0.2h-0.2l-0.2-0.2h-0.5h-0.2h-1.2
		l-0.2-0.2l-1-0.2l-1.4-1l-1.7-0.2l-0.2-1v-0.2v-0.2v-0.2v-0.5v-0.2v-0.5l-0.2-0.5v-0.2v-0.2v-0.2l-0.2-0.7v-0.2V231l-0.2-0.2v-0.2
		l-0.2-0.2v-0.2l-0.5,0.2l-1.2-1.7l-0.5-1.9v-1l-1-4.1l-0.2-0.7l-0.2-2.4v-0.2l0.2-0.7v-0.7l0.2-1l0.2-0.2L235.9,215.2L235.9,215.2z
		"/>
	<path id="Währing" class="st0" d="M241.6,236.6l1.4,1l1,0.2l0.2,0.2h1.2h0.2h0.5l0.2,0.2h0.2h0.2l2.9,0.7l3.8,1.4l1.7,0.5l0.2,0.2
		l1.7,0.7h0.5l3.4,0.5l2.4,0.5l5,0.5h0.7l0.5,0.2l1.4,0.5l0.5,0.2l0.7,0.2l0.7,0.2l1,0.5l1.2,0.7l2.9,1.9h0.2l0.2,0.2h0.2v0.2v0.5
		l-0.2,0.7v0.5v0.7v0.7l-0.2,1h0.2l1.4,0.2l1.9,0.5v0.2l-0.2,1v0.2l0.2,0.2l0.2,0.5l2.9,2.6v0.2h0.2v0.2h0.2l1,0.7l0.5,0.2l1.9,1
		l3.6,1.7l3.4,1.7h0.2v-0.2h0.2v-0.2h0.2h0.2V263h0.2l0.2,0.2l6.2,2.4l0.2,1.4h-0.2l-0.2,0.2h-0.2l-0.2,0.2h-0.2v0.2l-0.2,0.2h0.2
		l0.2,0.2l0.2,0.2h0.2h0.2l0.2,0.2h0.5l1,0.2h0.7l0.5,0.2h0.7l0.7,0.2l1,0.5l0.7,0.2l3.1,1.7l5.8,3.1l3.4,1.7l0.5,0.2h0.2h0.5h3.1h1
		h0.7h2.9h6.5v7.9v1.2v0.2h3.1h5.5l4.6,1l4.8,1.2h0.5l0.2-0.2l0.2-0.2h0.2l2.6,0.5l0.2-0.2l0.2-1.4v-0.2l2.9,0.2v1.4l-0.2,0.5
		l-0.2,1.4l-0.2,1.4v0.2l3.4,0.2l0.2-0.2l1.9-0.5l1,0.5h-0.2l-0.7,0.7l-0.2,0.2h-0.2l-0.2,0.2l-0.5,0.2l-1,0.5l-1.4,1.2h-0.2v0.2
		l-0.5,0.5h-0.2v0.2l-0.5,0.5v0.2l-0.2,0.2v0.2v0.2h-0.2v0.2v0.2l-0.2,0.5v0.7l-1,6.7l-1,5.8l-0.2,2.9l-0.2,0.5v0.2v0.5l-0.2,0.2
		l-0.2,0.5v0.2l-0.2,0.5l-0.2,0.2l-0.2,0.2l-0.2,0.2l-0.2,0.2h-0.2v0.2h-0.2l-0.2,0.2h-0.2l-0.2,0.2h-0.2l-0.2,0.2v-0.2h-0.2v-0.2
		h-0.2l-6,2.4l-0.2,0.2l-0.5,0.5v0.2l-2.4,9.1h0.5v0.2l-0.2,0.2l-0.2,1v0.2v0.2l-0.2,0.2l-0.2,1.2l-0.2,0.5l-1-0.2l-5-1.2h-0.2h0.2
		l0.2-1.7l1.2-4.1l-1.4-0.5l-5-1.4l-1-2.2v-0.2l1-1.7l1-1.9l-0.2-1.2l-8.9-6.7l-1.9-0.7l-4.8-3.1v-0.7v-0.7l0.2-0.5l-2.4-1.9v0.2
		l-1.2,1.2l-0.2,0.2l0.2,0.2l-0.2,0.2v0.2l-0.2,0.2l-0.5,0.2l-0.5,0.2l-1,0.5h-0.2h-0.2l-0.5,0.2l-3.6-0.5l-1.7-0.7v-0.2l1.2-3.6
		l-0.5-0.2l-1.9-0.5h-0.5l0.2-0.2v-0.7l0.2-0.5l0.2-1l-1.9-0.2l-2.6-0.7l-5-1.2l-1.2-1.4l0.2-1.7l0.2-0.5v-0.7l-1.9-1v-1v-1.2H294
		h-0.2v0.2h-0.2h-0.2l-1.2,0.2l-1.2,0.2h-0.2h-0.2l-0.2,0.2h-0.2h-0.2h-0.2l-0.2,0.2h-0.2h-0.2h-0.2h-0.2H288h-1.4L286,291h-0.5
		l-1.4-0.5l-0.7-0.2h-0.5l-1-0.5l-0.5-0.2l-0.2-0.2H281l-0.2-0.5l-0.2-0.2l-0.2-0.2l-0.5-0.5h-0.5l-0.7-0.5l-0.7-0.2l-2.4-1
		l-6.7-3.4h-0.2v-0.5l-0.2-0.5v-1L268,279v-0.2h-1.7l-1.2-1.4l-0.5-0.7l-2.4-1.4l-1.4-0.2l-2.9-0.2l-0.2,0.2l-0.2,0.7l-0.5,0.7h-0.2
		v0.2l-2.6,1.2l-1.7,0.5l0.2-0.7l0.2-2.6v-0.5v-2.6l-0.2-2.2l-4.8-0.2l-1.7,0.2l-1.2,0.2h-0.2h-0.2H244l-1.9,0.2l-4.1-1l-0.5-0.2
		l-2.4-0.5l-0.2-0.2l-2.2-1.4h-0.2l0.2-1l0.5-0.7l0.7-0.7l1.4-0.7l3.1-1.2l0.7-0.2l1.4-0.5h0.2h0.7h0.7l1.2-0.5l-0.2-1v-0.2v-0.7
		v-0.5h0.2l1-0.2h0.2v-0.2l0.5-0.2l1.2-1.7l0.2-1.2h1l0.2,0.2l0.7,0.5l2.2-0.5l1.4-0.7l-1.2-3.4l-2.2,0.5h-1h-6l-1.7-0.2h-1.7
		l-1.4,0.2l-0.7,0.2h-1.7H234l-1.4-0.2l-2.4-0.5l-0.2-4.1v-0.2v-0.7l0.2-0.5l1.2-1.2l1.7-1.2l1.7-1.2h0.2l2.2-1.2v-0.2l-0.2-0.2
		l0.7-1.2l1.2-0.5l0.2-0.2l1-0.5l0.7-0.2l0.2-0.2v-0.2h0.2l0.2-0.2L241.6,236.6z"/>
	<path id="Hernals" class="st0" d="M204,274.7l-0.5,0.7l-0.5,0.5l-0.2,0.2v0.2l-0.5,0.2H202h-0.7l-1.7-0.7l-5.5-2.6l-2.4-1.2l-2.4-1
		l-0.5-0.2l-3.4-1.4l-4.3-0.7H180l-0.2-2.9v-1l0.7,0.3l0.3-1v-0.2l-0.2-3.4l1.2-1.9l1.4-3.6l0.2-2.6l0.5-1.2l0.2-0.5l0.2,0.2h0.5
		l1.7,0.7l1.9,0.7l1.9-1.4l0.7-0.5l2.2-2.2l2.9-2.2v-0.2l0.5-0.5l0.2-1.2l-0.5-0.7l-0.7-1.7v-0.5l3.6-2.4l3.1-2.2l2.4-1.7l1.9-1.2
		v-0.2l0.5-2.2v-0.5l-1-1.4l-0.5-0.7l-0.7-1l-0.5-0.2h-1h-2.6l-1.7-0.7l-1.2-0.5h-0.2H197l-2.4-0.2l-0.2-1.2l1.7-0.2h0.5h2.4l1,0.2
		h0.5l3.1,0.2l2.4-1l1-0.5l0.2-0.2l1.2-1l1.9-1.2l1-0.5l1.2-0.5l2.2-1l2.2-0.5l3.4,0.2h1v0.2l1,0.2l1,0.2h1.2l1.2-0.2l2.2-1.4
		l1.9-1.2l2.2-0.2l2.6-0.7l0.2-0.2l0.7-0.5l0.7-0.2v0.5l-0.2,0.2l-0.2,1v0.7l-0.2,0.7v0.2l0.2,2.4l0.2,0.7l1,4.1v1l0.5,1.9l1.2,1.7
		l0.5-0.2v0.2l0.2,0.2v0.2l0.2,0.2v0.2v0.2l0.2,0.7v0.2v0.2v0.2l0.2,0.5v0.5v0.2v0.5v0.2v0.2v0.2l0.2,1l1.7,0.2l-0.2,0.7l-0.2,0.2
		h-0.2v0.2l-0.2,0.2l-0.7,0.2l-1,0.5l-0.2,0.2l-1.2,0.5l-0.7,1.2l0.2,0.2v0.2l-2.2,1.2h-0.2l-1.7,1.2l-1.7,1.2l-1.2,1.2l-0.2,0.5
		v0.7v0.2l0.2,4.1l2.4,0.5l1.4,0.2h0.7h1.7l0.7-0.2l1.4-0.2h1.7l1.7,0.2h6h1l2.2-0.5l1.2,3.4l-1.4,0.7l-2.2,0.5l-0.7-0.5l-0.2-0.2
		h-1l-0.2,1.2l-1.2,1.7l-0.5,0.2v0.2h-0.2l-1,0.2h-0.2v0.5v0.7v0.2l0.2,1l-1.2,0.5h-0.7h-0.7h-0.2l-1.4,0.5l-0.7,0.2l-3.1,1.2
		l-1.4,0.7l-0.7,0.7l-0.5,0.7l-0.2,1h0.2l2.2,1.4l0.2,0.2l2.4,0.5l0.5,0.2l4.1,1l1.9-0.2h0.5h0.2h0.2l1.2-0.2l1.7-0.2l4.8,0.2
		l0.2,2.2v2.6v0.5l-0.2,2.6l-0.2,0.7l1.7-0.5l2.6-1.2v-0.2h0.2l0.5-0.7l0.2-0.7l0.2-0.2l2.9,0.2l1.4,0.2l2.4,1.4l0.5,0.7l1.2,1.4
		h1.7v0.2l0.2,1.9v1l0.2,0.5v0.5h0.2l6.7,3.4l2.4,1l0.7,0.2l0.7,0.5h0.5l0.5,0.5l0.2,0.2l0.2,0.2l0.2,0.5h0.2l0.2,0.2l0.5,0.2l1,0.5
		h0.5l0.7,0.2l1.4,0.5h0.5l0.5,0.2h1.4h0.2h0.2h0.2h0.2h0.2l0.2-0.2h0.2h0.2h0.2l0.2-0.2h0.2h0.2l1.2-0.2l1.2-0.2h0.2h0.2v-0.2h0.2
		h0.2v1.2v1l1.9,1v0.7l-0.2,0.5l-0.2,1.7l1.2,1.4l5,1.2l2.6,0.7l1.9,0.2l-0.2,1l-0.2,0.5v0.7l-0.2,0.2h0.5l1.9,0.5l0.5,0.2l-1.2,3.6
		v0.2l1.7,0.7l3.6,0.5l0.5-0.2h0.2h0.2l1-0.5l0.5-0.2l0.5-0.2l0.2-0.2v-0.2l0.2-0.2l-0.2-0.2l0.2-0.2l1.2-1.2V304l2.4,1.9l-0.2,0.5
		v0.7v0.7l4.8,3.1l1.9,0.7l8.9,6.7l0.2,1.2l-1,1.9l-1,1.7v0.2l1,2.2l5,1.4l1.4,0.5l-1.2,4.1l-0.2,1.7h-0.2h0.2l5,1.2l1,0.2l-2.2,6
		l-0.2,0.2l-1.9,5.5l-0.5,1.2l-0.2,1l-0.2,0.5v0.2l-1.7-0.2v-0.2l0.2-3.4V341v-0.2l-0.2,0.2l-3.8,0.7l-0.5,0.2l-3.8,0.7h-0.5
		l-3.1,0.5l-0.7,0.2h-0.2h-0.2h-0.2h-0.2v0.2h-0.2h-0.2h-0.2H324l-1,0.2l-3.8,1.2l-2.9,0.7l-2.4,0.7h-0.2v-0.2l-0.2-2.2l-0.2-1.4
		v-0.2v-0.5l-0.2-1.4v-0.2H310h-0.5l-2.2,0.2h-0.2v-0.2l0.5-2.2l-3.1-0.2h-0.2v-0.2v-0.5l0.7-2.4v-0.2l-2.2-0.2l-0.5-0.2l2.2-8.9
		l-4.3-2.4l-4.1-1.9l-0.7-0.5l-6.7-3.6l-1,1.7l-0.2,0.5l-4.8-1l-1-0.2l-0.2-0.2l-1.2-0.7l-0.2,0.5v0.2v0.2v0.2h-0.2l0.2,0.2v0.2v0.2
		l-2.6,0.5h-0.2v-0.2l-0.5-1.4V317l-0.7-3.1v-0.2h-0.2h-0.2l-0.2-0.2H275h-0.2h-0.2h-0.2v-0.2h-0.5h-0.2h-0.2h-0.2v-0.2h-0.2h-0.2
		h-0.2h-0.2h-0.2h-0.2h-0.2h-0.2h-0.2h-0.2h-0.2h-0.2H270h-0.2h-0.2h-0.2H269v0.2h-0.2v0.2h0.2l0.2,0.5v0.2h0.2v0.2v0.2v0.2v0.2v0.2
		v0.7l-0.2,0.2l-1.4,0.2l-1.2,0.2h-0.2h-0.2v-0.2l-0.2-0.2l-0.7-0.2l-0.7-0.5h-0.2l-0.2-0.2l-5-2.2h-0.2l-1.9,0.2h-0.5H256h-0.2
		h-0.2l-1,0.5h-0.5l-6,2.2l-0.7,0.2l-0.2,0.2h-0.2l-0.2,0.2l-0.7,0.7l-0.2,0.2l-0.2,0.2l-0.2,0.2l-0.7,0.7l-2.6,2.2l-0.2,0.2l-1,0.5
		h-0.2H240l-2.6,0.2h-0.5l0.5-1l0.2-0.5l0.5-1.4l0.2-0.2l0.2-2.2l-0.2-2.6l-2.2,0.7l-1.2,0.5h-0.2l-0.2,0.2l-0.5,0.2h-0.2l-1.4-0.7
		l-0.7-0.2l-0.5-0.5l-0.7-0.5l-0.7-0.7v-0.2l-0.5-1l-2.2-1.7l-1.2-1l-2.9-1.4l-1.4-0.5l-0.2-0.2H221h-0.2h-1h-0.2h-0.2l-1-0.2
		l-0.5-0.7h-0.2l-5.8,0.5h-1.7h-0.7h-0.7l-1.7,0.5l-1.4,0.2h-1.2h-0.2h-1.4l-2.6,0.2h-0.2h-0.7l-3.1,1.7l-5.3,2.6l-1.7,0.7l-0.5,0.2
		l-0.2,0.2l-1.7-0.5l-3.4-0.2h-0.2l-2.6,3.1v0.2v0.5L180,317v0.2l-1.9,1.7l-0.2,0.2l-1.2,1l-1.9,1.4l-0.2,0.5l-0.2,0.5l-0.7,1.2
		l-1.4,1.7l-0.5,0.7h-1h-1.2l-0.5,0.2l-0.2,0.2h-0.2l-0.5,0.7l-0.2,0.5l-1,1l-0.7-0.2l2.9-4.1l4.8-7.4l2.4-5.5l0.2-0.7l0.2-1
		l0.5-1.9l0.2-0.5l0.2-1.4v-0.2v-0.2v-1.7v-0.2v-1.2l0.2-0.2l0.5-1.7l0.2-0.2l0.5-1.2l0.2-0.2l0.2-0.5l0.2-0.2l0.5-0.7l0.2-0.2
		l2.4-1.4l1.4-1l0.5-0.2l1.4-0.7l0.5-0.2l0.2-0.2l2.2-1.4l0.2-0.5l1.9-1.7l0.5-0.5l0.2-0.5l0.7-1.2v-0.2l0.5-0.7v-0.2l1-0.7l0.5-0.5
		l1.4-1.2l4.6-3.8l0.2-0.2l0.2-0.2l1.4-1.9l2-2.7L204,274.7z"/>
	<path id="Ottakring" class="st0" d="M174.2,322.5l0.2-0.5l0.2-0.5l1.9-1.4l1.2-1l0.2-0.2l1.9-1.7V317l0.5-0.7v-0.5v-0.2l2.6-3.1
		h0.2l3.4,0.2l1.7,0.5l0.2-0.2l0.5-0.2l1.7-0.7l5.3-2.6l3.1-1.7h0.7h0.2l2.6-0.2h1.4h0.2h1.2l1.4-0.2l1.7-0.5h0.7h0.7h1.7l5.8-0.5
		h0.2l0.5,0.7l1,0.2h0.2h0.2h1h0.2h0.2l0.2,0.2l1.4,0.5l2.9,1.4l1.2,1l2.2,1.7l0.5,1v0.2l0.7,0.7l0.7,0.5l0.5,0.5l0.7,0.2l1.4,0.7
		h0.2l0.5-0.2l0.2-0.2h0.2l1.2-0.5l2.2-0.7l0.2,2.6l-0.2,2.2l-0.2,0.2l-0.5,1.4l-0.2,0.5l-0.5,1h0.5l2.6-0.2h0.5h0.2l1-0.5l0.2-0.2
		l2.6-2.2l0.7-0.7l0.2-0.2l0.2-0.2l0.2-0.2l0.7-0.7l0.2-0.2h0.2l0.2-0.2l0.7-0.2l6-2.2h0.5l1-0.5h0.2h0.2h0.2h0.5l1.9-0.2h0.2l5,2.2
		l0.2,0.2h0.2l0.7,0.5l0.7,0.2l0.2,0.2v0.2h0.2h0.2l1.2-0.2l1.4-0.2l0.2-0.2v-0.7v-0.2v-0.2v-0.2v-0.2v-0.2h-0.2v-0.2l-0.2-0.5h-0.2
		v-0.2h0.2v-0.2h0.2h0.2h0.2h0.2h0.2h0.2h0.2h0.2h0.2h0.2h0.2h0.2h0.2h0.2h0.2h0.2h0.2v0.2h0.2h0.2h0.2h0.5v0.2h0.2h0.2h0.2h0.2
		l0.2,0.2h0.2h0.2v0.2l0.7,3.1v0.5l0.5,1.4v0.2h0.2l2.6-0.5v-0.2v-0.2l-0.2-0.2h0.2v-0.2v-0.2v-0.2l0.2-0.5l1.2,0.7l0.2,0.2l1,0.2
		l4.8,1l0.2-0.5l1-1.7l6.7,3.6l0.7,0.5l4.1,1.9l4.3,2.4l-2.2,8.9l0.5,0.2l2.2,0.2v0.2l-0.7,2.4v0.5v0.2h0.2l3.1,0.2l-0.5,2.2v0.2
		h0.2l2.2-0.2h0.5h2.9v0.2l0.2,1.4v0.5v0.2l0.2,1.4l0.2,2.2v0.2h0.2l2.4-0.7l2.9-0.7l3.8-1.2l1-0.2h0.2h0.2h0.2h0.2v-0.2h0.2h0.2
		h0.2h0.2l0.7-0.2l3.1-0.5h0.5l3.8-0.7l0.5-0.2l3.8-0.7l0.2-0.2v0.2v4.6l-0.2,3.4v0.2l1.7,0.2l-0.2,0.5l-0.2,1v0.2v0.7v0.2v0.2v0.5
		l-0.2,3.6v0.5l-0.2,0.5v0.2v0.2v0.2v0.2l-0.2,0.2v0.2v0.2l-0.2,0.2v0.2l-0.2,0.2l-0.2,0.5l-0.5,1l-1.7,4.3v0.2l-0.2,0.2v0.2v0.2
		v0.2h-0.2v0.2v0.2v0.2v0.2v0.2v0.2v0.2v0.2v0.5l0.2,3.6h-0.2l-6.5,0.2l-2.9-0.5l-0.2-0.2l-6.5-1.4l-6.2-1.4l-8.9-1.9l-0.5-0.2
		l-3.6-0.7l-3.6-1l-3.4-0.7l-4.6-1l-0.5,1.7l-0.2,3.4l0.2,1l0.2,2.2v0.2l-1.2-0.5H287l-0.5-0.2l-0.5,1.2l-0.5,1.4l-1,2.4l-2.4-1
		l-0.7-1v-0.7l-3.4-1.2l-0.2-0.2h-0.2l-4.1-1.4h-0.2h-0.2l-0.2-0.2h-0.2h-0.2h-0.2h-1.2v0.5h-0.2l-6.2-1.7h-1l-1.2-0.2L262,369h-0.2
		l-0.7-0.2l-6.2-3.8l-2.4-1.4L250,364l-1.7,0.5l-0.7,0.2l-1.9,0.7l-0.5,0.2l-1,0.2h-0.5l-0.5,0.2h-0.2h-0.2h-0.2h-0.2h-0.2h-0.2
		h-0.2h-0.2h-0.2h-0.2v-0.2h-0.2h-0.2h-0.2h-0.5h-0.2h-0.2l-0.2-0.2h-0.2h-0.2h-0.2H238l-0.5-0.2h-0.2l-1.9-0.5h-0.5l-0.7-0.2H234
		l0.5-0.2l0.2-0.2h0.2l0.2-0.2l0.7-0.7h0.2l0.5-0.7v-1.2v-0.2v-0.2l-0.2-0.2l-0.2-4.6v-0.5v-0.2v-0.5v-0.2l0.2-1.4l0.2-4.6h-0.2
		v-0.2h-0.2v-0.2h-0.2v-0.2v-0.2h-0.2v-0.2v-0.2V347v-0.2v-1.7v-0.7l-0.2-0.2l-1.7-0.2l-3.6-1.4l-0.7-0.5h-0.5v-0.2h-0.7l-0.2-0.2
		h-0.2h-0.2h-0.2l-6-0.2H221l-1-0.2h-0.5h-0.5h-0.5h-0.2h-0.7h-0.2h-0.5h-0.2h-0.2h-0.7l-2.4-1l-1.2-0.2l-0.2-0.2h-0.2l-1-1
		l-0.5-0.5l-0.7-0.7h-0.2l-0.5-0.7v-0.2v-0.2v-0.2l-2.2-1.9l-0.7-0.2l-0.2,0.2h-0.2H204l-1-0.2l-2.6-0.5v-0.2l-0.5-0.2l-1.9,0.2
		h-0.2h-0.2l-0.7,0.2l-1.2,0.2v0.2l-1.9-1l-0.7-1.4l-1.2-1l-0.7-0.2l-2.9-1.4l-0.7-0.5l-0.2-0.2l-1-0.2l-0.7,0.2h-1l-2.2-0.5
		l-1.4-0.2l-2.9-2.2l-2.4-1.4L174.2,322.5z"/>
	<path id="Rudolfsheim-Fünfhaus" class="st0" d="M291.5,422.1l0.5-1.4v-2.4l1.9-5h0.2h0.2h0.2l5.5,0.5l1.2,0.2h0.2h0.2h0.2h0.2h0.2
		h0.2l0.5-0.2l0.5-2.2l-0.7-0.2l-2.9-1.2l-1.7-0.7l-0.7-0.5h-0.2l-0.7-0.7l-1.2-1.4v-0.2l1-2.2v-0.5l-0.5-0.2l-1.9-0.7l-1.4-0.5
		l-3.6-1.4h-0.5l0.2-0.5l1-2.4l1-2.9l0.7-5.8l0.2-1.9h1.4h1.4h0.5h1.4h2.4l1-0.2l-3.6-2.6l-3.8-2.9L286,377l-1.4-0.5l1-2.4l0.5-1.4
		l0.5-1.2l0.5,0.2h0.2l1.2,0.5v-0.2l-0.2-2.2l-0.2-1l0.2-3.4l0.5-1.7l4.6,1l3.4,0.7l3.6,1l3.6,0.7l0.5,0.2l8.9,1.9l6.2,1.4l6.5,1.4
		l0.2,0.2l2.9,0.5l6.5-0.2h0.2v1l0.2,3.8v0.5l0.2,1.9l0.7,3.1v0.2l0.5,2.4v-0.2l0.5,1.4v0.5l0.5,1.7l0.2,0.5v0.5l0.5,2.2l0.7,2.4
		l0.7,2.4v0.2l0.2,1v0.2v0.2h-0.2l-0.7,2.9l-2.2,6.2l-0.5,0.7l-0.5,1.4l-0.5,1.4l0.2,0.7l2.2,5.3l1,1.4l-0.5,0.2l-0.5,0.2l-0.5,0.5
		l-0.5,0.2l-0.5,0.5l-0.2,0.2l-0.5,0.5l-0.5,0.7l-0.5,0.5l-0.2,0.5l-0.2,0.5v0.2l-0.5,1l-0.5,0.7l-0.2,0.5l-0.5,0.5l-0.2,0.2
		l-0.5,0.7l-1.2,1.4l-0.2,0.2l-0.5,0.2l-0.5,0.5l-0.5,0.2l-0.5,0.5L328,431h-0.2h-0.2l-1,0.5h-0.2l-0.2,0.2h-0.2h-0.2l-1.9,0.2h-0.2
		h-0.2h-1h-1.2h-1h-1h-1.2h-0.5l-0.5-0.2h-0.2h-0.2H316l-0.2-0.2l-2.2-0.7l-0.5-0.2l-1.9-0.7l-0.2-0.2l-7.4-3.4l-0.5-0.2l-2.4-1
		l-0.7-0.2l-1.2-0.5l-0.5-0.2l-1.7-0.7h-0.2h-0.2l-1.9-0.5l-0.2-0.2h-0.7L291.5,422.1z"/>
	<path id="Penzing" class="st0" d="M204.5,274.9l-2,2.7l-1.4,1.9l-0.2,0.2l-0.2,0.2l-4.6,3.8l-1.4,1.2l-0.5,0.5l-1,0.7v0.2l-0.5,0.7
		v0.2l-0.7,1.2l-0.2,0.5l-0.5,0.5l-1.9,1.7l-0.2,0.5l-2.2,1.4l-0.2,0.2l-0.5,0.2l-1.4,0.7l-0.5,0.2l-1.4,1l-2.4,1.4l-0.2,0.2
		l-0.5,0.7l-0.2,0.2l-0.2,0.5L179,299l-0.5,1.2l-0.2,0.2l-0.5,1.7l-0.2,0.2v1.2v0.2v1.7v0.2v0.2l-0.2,1.4l-0.2,0.5l-0.5,1.9l-0.2,1
		l-0.2,0.7l-2.4,5.5l-4.8,7.4l-2.9,4.1l0.7,0.2l1-1l0.2-0.5l0.5-0.7h0.2l0.2-0.2l0.5-0.2h1.2h1l0.5-0.7l1.4-1.7l0.7-1.2l1.4,1.2
		l2.4,1.4l2.9,2.2l1.4,0.2l2.2,0.5h1l0.7-0.2l1,0.2l0.2,0.2l0.7,0.5l2.9,1.4l0.7,0.2l1.2,1l0.7,1.4l1.9,1v-0.2l1.2-0.2l0.7-0.2h0.2
		h0.2l1.9-0.2l0.5,0.2v0.2l2.6,0.5l1,0.2h1.4h0.2l0.2-0.2l0.7,0.2l2.2,1.9v0.2v0.2v0.2l0.5,0.7h0.2l0.7,0.7l0.5,0.5l1,1h0.2l0.2,0.2
		l1.2,0.2l2.4,1h0.7h0.2h0.2h0.5h0.2h0.7h0.2h0.5h0.5h0.5l1,0.2h0.2l6,0.2h0.2h0.2h0.2l0.2,0.2h0.7v0.2h0.5l0.7,0.5l3.6,1.4l1.7,0.2
		l0.2,0.2v0.7v1.7v0.2v0.2v0.2v0.2h0.2v0.2v0.2h0.2v0.2h0.2v0.2h0.2l-0.2,4.6l-0.2,1.4v0.2v0.5v0.2v0.5l0.2,4.6l0.2,0.2v0.2v0.2v1.2
		l-0.5,0.7h-0.2l-0.7,0.7l-0.2,0.2h-0.2l-0.2,0.2l-0.5,0.2h0.2l0.7,0.2h0.5l1.9,0.5h0.2l0.5,0.2h0.2h0.2h0.2h0.2l0.2,0.2h0.2h0.2
		h0.5h0.2h0.2h0.2v0.2h0.2h0.2h0.2h0.2h0.2h0.2h0.2h0.2h0.2h0.2l0.5-0.2h0.5l1-0.2l0.5-0.2l1.9-0.7l0.7-0.2l1.7-0.5l2.4-0.5l2.4,1.4
		l6.2,3.8l0.7,0.2h0.2l0.2,0.2l1.2,0.2h1l6.2,1.7h0.2v-0.5h1.2h0.2h0.2h0.2l0.2,0.2h0.2h0.2l4.1,1.4h0.2l0.2,0.2l3.4,1.2v0.7l0.7,1
		l2.4,1l1.4,0.5l6.5,4.8l3.8,2.9l3.6,2.6l-1,0.2h-2.4h-1.4h-0.5h-1.4h-1.4l-0.2,1.9l-0.7,5.8l-1,2.9l-1,2.4l-0.2,0.5h0.5l3.6,1.4
		l1.4,0.5l1.9,0.7l0.5,0.2v0.5l-1,2.2v0.2l1.2,1.4l0.7,0.7h0.2l0.7,0.5l1.7,0.7l2.9,1.2l0.7,0.2l-0.5,2.2l-0.5,0.2h-0.2h-0.2h-0.2
		h-0.2h-0.2h-0.2l-1.2-0.2l-5.5-0.5h-0.2h-0.2H294l-1.9,5v2.4l-0.5,1.4l-0.2-0.2l-1.4-0.2h-0.2v-0.2h-0.2h-1.7l-3.1-0.2h-0.5
		l-2.2-0.2h-0.5h-1.9h-0.5h-1.9h-0.2h-0.2l-2.6-0.2h-0.2h-0.2h-0.2l-0.5-0.2h-0.2h-0.2h-0.5l-0.2-0.2h-0.5l-0.5-0.2l-2.9-1l-2.4-0.7
		h-0.2l-0.2-0.2l-1.4-0.2l-0.5-0.2l-1.7-0.5l-0.5-0.2l-1.7-0.5l-8.6-2.6l-0.2-0.2l-1.9-0.5l-1.9-0.5l-1.7-0.5h-0.5l-1.7-0.5
		l-6.5-1.4l-3.6-0.7l-0.2-0.2l-2.2-0.2l-0.5-0.2l-1.4-0.2h-0.5l-2.6-0.2l-2.9-0.5H222l-5.8-1l-3.6-0.5l-3.1-0.5l-3.6-0.5h-0.2h-0.5
		h-0.2l-0.2-0.2h-0.2h-0.2H204h-0.2l-0.2-0.2h-0.2H203h-0.2l-0.2-0.2h-0.2H202l-0.2-0.2h-0.2h-0.5v-0.2h-0.5l-0.5-0.2l-2.2-1h-0.2
		h-0.2v-0.2h-0.2H197l-0.2-0.2l-0.2-0.2h-0.2l-1.4-1.4l-0.7-0.5l-2.2-1.7l-0.7-0.7l-1.4-1l-0.5-0.2l-1.9-1.2l-7.9-5.5l-5.5-4.1
		l-2.2-1.4l-1.4-1.2l-0.7-0.5h-0.2l-0.2-0.2h-0.2l-0.2-0.2l-0.2-0.2l-0.5-0.2l-0.7-0.2H167l-0.5-0.2h-0.2H166l-0.2-0.2h-0.2h-0.2
		l-0.7-0.2h-0.2l-1.2-0.2h-0.2l-0.2,0.2h-0.2h-0.2L162,381l-1.7-0.2l-7-1.2h-0.2h-0.2h-0.2l-1.7-0.2l-0.2-0.2h-0.2h-0.2l-0.2-0.2
		h-0.2h-0.2l-0.2-0.2H149h-0.2l-0.2-0.2h-0.2H148v-0.2h-0.2h-0.2l-0.2-0.2h-0.2h-0.2v-0.2h-0.2h-0.2l-0.2-0.2l-0.2-0.2h-0.2h-0.2
		l-0.2-0.2l-0.2-0.2h-0.2h-0.2v-0.2l-1-0.5l-1.7-1.2l-0.2-0.2l-1.9-1.4l-0.2-0.2l-0.2,0.2l-1.7,3.1l-0.5,0.5l-1.4,1.4l-2.4,1.2v-0.5
		l-0.2-2.2v-0.2l-0.2-0.7l-0.5,0.2l-5.8,1.4l-3.6,1l-2.2,0.7l-0.2,0.2l-0.2-0.2l-2.2-1.2l-2.4-1.4l-4.6-2.6h-0.5l-2.9-1.4h0.5
		l-1-0.7H107l-0.2-0.2l-1.7-1h-0.2l-0.5-0.2l-1.7-1l-2.6-1.7l-1.7-1.7l-0.2-0.2l-1.7-1.4h-0.2l-0.7,1l-0.7,0.7l-1,1.2l-2.2,2.2
		l-0.5,0.5L90,371h-1l-0.7-0.2l-0.7,1.9l-0.7,1l-0.5,1l-0.2,0.2l-0.5,0.7l-0.5,1l-0.5,1.4l-0.5-0.2l-0.7-0.2h-0.2h-0.5l-0.5,0.2
		h-0.5h-0.5l-0.5-0.2l-2.9-1.9h-0.2l-1-0.7l-1.9-1.7l-0.2-0.5l-0.2-0.5l-0.2-0.5v-0.2v-0.7l2.4-1l1.4-2.4l0.7-0.2l0.5-0.2l0.5-0.2
		l0.2-0.2l1-0.5l0.7-0.7l0.2-0.2l0.7-0.7l0.5-0.7l0.5-0.5v-0.2l0.2-0.5l0.7-1.2l0.5-1.2l1.9-1.7l1-0.7l1.2-0.7l-1.9-3.4l-0.5-0.7
		l-2.9-1.2l-1-0.2l-0.2,0.2l-1.9-1.2l-1-0.7l-3.6-1h-0.5h-1h-0.7l-0.5-0.2l-3.8-1.7l-0.2-0.2l-3.6-4.3l-1.7-3.8l-0.7-1.4l-0.5-1.2
		v-0.5h0.2l0.2-0.5V334l-0.2-1.4l-0.7-1.7l-1-1.4l-0.5-1.2l-0.2-0.2v-0.2l0.5-0.7l3.4-4.1H65l0.2-0.2h0.2l0.2-0.2l1.2-1.2v-1.4
		l-1-1.7l-3.1-1.4h-2.2l-4.1-0.2h-1h-0.5h-0.5l-1.2,0.5l-1.4,0.2l-0.7,0.2l-0.5,0.2h-0.2l-1.2-0.2h-0.7l-0.5-0.2l-1.4-0.2h-3.4
		l-0.2,0.2l-1,0.7l-0.7-0.7l0.7-1.7l1.7-2.2l2.2-1.4h0.2l0.2-0.2l2.4-0.2l2.2-0.2l2.9-2.2l1-1l1.9-2.4L58,304v-0.2l0.5-1l0.2-0.2
		l1-1L64,298h0.2H65h0.5v0.2h0.2H66l0.7,1.2v0.2l0.2,0.5h0.2l1.4,1.4v-1.7l-0.2-4.8l-0.2-0.7l-3.1-2.2l-4.1-2.9l-2.9-1.7h-0.2
		l-1-3.8v-0.5l0.2-1l0.5-1.2l0.5-1V280h-0.2l-0.2-0.2h-0.5l-0.7-0.5l0.2-1.2l0.2-0.5l1-0.5l1-1.9l0.2-0.5l0.2-1.7l0.5-6l-0.2-0.5
		h-0.2h-0.5h-0.2l-0.2-0.2v-0.2l-0.5-7v-0.2v-0.2v-0.5l0.5-1.7l0.2-0.5v-0.2l0.2-0.2v-0.2L59,255l1-1.4l0.5-0.7l0.7-1.4l1.4-3.8
		v-1.7v-0.5l-0.2-0.2v-1.4l0.2-2.4v-0.5l0.2-0.5l0.2-0.7l3.4-4.3l1.7-2.9l0.2-0.7l1.7-2.4l1-1l0.5-0.2l1-0.5l1.4-0.7L76,225l2.4-2.2
		l1.2-0.2l1.4-1.2l0.2-0.2v-1l-0.2-0.7l-0.5-1.2l-1-1v-0.7V214l0.2-1.7l0.5-0.7l0.7-1.4l0.2-1.7v-2.2l-0.2-0.7l-0.2-0.5l-0.5-0.5
		v-0.2v-0.5l1.2-2.2l0.5-0.5l1.2-1.2l1.4-1.2l0.5-0.2l1-0.5l1-0.2l0.5,0.2l1,0.5l1,0.7l3.6,3.6l2.4,2.9l0.7,0.7l1.9,1l0.2,0.5l0.5,1
		l-0.2,0.7l1.4,0.7h0.2l2.2,1l1.9,1l4.1,1.9l1.7,0.2l1.4,1l3.1,4.1l1.4,1.7l1.4,1l4.1,2.6l1,1.4l1.4,1.4l2.4,1.7l1.9,1.2l1.4,2.2
		l0.7,1.2l0.7,0.7l2.4,1.2l1.7,1.4l0.5,1.2l2.2,0.7h0.5l2.2,0.2l0.7,0.2l3.8,1.7l2.6,1.7l1.9,1v1l-1.2,2.6l-1.2,2.2l-1.4,2.9
		l-0.5,1.7l-0.2,2.4l-1.4,1.4l-0.7,0.5v0.2l-0.5,1.4l0.2,1.7l0.2,1.9l0.5,2.2l0.5,1l0.5,0.7l0.2,0.2l0.5,0.5l1,0.2l1,0.2l0.5,0.5
		l0.7,1.4l0.7,1l1.7,1.4l1.7-1.2l5.3-0.5h1.4l1.4-0.5l2.9-1.2l1.4-0.7l2.4-1.7h1.9h3.1l3.6,0.2l0.5,0.5l2.2,0.5h1.4h1.2l4.3,0.7
		l3.4,1.4l0.5,0.2l2.4,1l2.4,1.2l5.5,2.6l1.7,0.7h0.7h0.2l0.5-0.2v-0.2l0.2-0.2l0.5-0.5l0.5-0.7L204.5,274.9z"/>
	<path id="Hietzing" class="st0" d="M115.2,520.7l-1.7-0.2l-2.6-0.5l-6-1.2l-6.5-1l-4.8-1l-1.7-0.2l-6.2-1.2l-6.7-1.2L77,514
		l-0.5,0.2l-1.9,1l-1.4,0.7l-6.2,1.9l-1-2.2l-1-2.4l-1.2-2.4l0.5-3.8l0.2-2.6l0.7-6.2l-2.4-8.6l-4.6-6.7l-0.2-0.2l-5.3-2.4l-6-2.6
		l-6.2-2.6l-3.4-2.4l-1.9-3.6l-0.2-0.2l1-0.7l3.8-2.4l5.8-4.1l0.7-0.7l0.2-5.8l0.2-3.6l2.4-3.1l1.9-2.2l1.7-1.4l3.4-2.9l1.2-0.7
		l5-9.4l3.4-2.9l3.4-3.1l1-0.7l4.8-11l1.4-2.9l1.7-8.4v-0.5V401v-5.8l0.7-1.2l1.9-2.6l0.2-1.7l0.7-2.9v-0.2l0.2-1l2.4-6.7l0.5-1
		l0.5-1.4l0.5-1l0.5-0.7l0.2-0.2l0.5-1l0.7-1l0.7-1.9L89,371h1l1.2-1.2l0.5-0.5l2.2-2.2l1-1.2l0.7-0.7l0.7-1h0.2l1.7,1.4l0.2,0.2
		l1.7,1.7l2.6,1.7l1.7,1l0.5,0.2h0.2l1.7,1l0.2,0.2h0.2l1,0.7h-0.5l2.9,1.4h0.5l4.6,2.6l2.4,1.4l2.2,1.2l0.2,0.2l0.2-0.2l2.2-0.7
		l3.6-1l5.8-1.4l0.5-0.2l0.2,0.7v0.2l0.2,2.2v0.5l2.4-1.2l1.4-1.4l0.5-0.5l1.7-3.1l0.2-0.2l0.2,0.2l1.9,1.4l0.2,0.2l1.7,1.2l1,0.5
		v0.2h0.2h0.2l0.2,0.2l0.2,0.2h0.2h0.2l0.2,0.2l0.2,0.2h0.2h0.2v0.2h0.2h0.2l0.2,0.2h0.2h0.2v0.2h0.2h0.2l0.2,0.2h0.2h0.2l0.2,0.2
		h0.2h0.2l0.2,0.2h0.2h0.2l0.2,0.2l1.7,0.2h0.2h0.2h0.2l7,1.2l1.7,0.2l0.2-0.2h0.2h0.2l0.2-0.2h0.2l1.2,0.2h0.2l0.7,0.2h0.2h0.2
		l0.2,0.2h0.2h0.2l0.5,0.2h0.2l0.7,0.2l0.5,0.2l0.2,0.2l0.2,0.2h0.2l0.2,0.2h0.2l0.7,0.5l1.4,1.2l2.2,1.4l5.5,4.1l7.9,5.5l1.9,1.2
		l0.5,0.2l1.4,1l0.7,0.7l2.2,1.7l0.7,0.5l1.4,1.4h0.2l0.2,0.2l0.2,0.2h0.2h0.2v0.2h0.2h0.2l2.2,1l0.5,0.2h0.5v0.2h0.5h0.2l0.2,0.2
		h0.2h0.2l0.2,0.2h0.2h0.2h0.2l0.2,0.2h0.2h0.2h0.2h0.2l0.2,0.2h0.2h0.5h0.2l3.6,0.5l3.1,0.5l3.6,0.5l5.8,1h0.2l2.9,0.5l2.6,0.2h0.5
		l1.4,0.2l0.5,0.2l2.2,0.2l0.2,0.2l3.6,0.7l6.5,1.4l1.7,0.5h0.5l1.7,0.5l1.9,0.5l1.9,0.5l0.2,0.2l8.6,2.6l1.7,0.5l0.5,0.2l1.7,0.5
		l0.5,0.2l1.4,0.2l0.2,0.2h0.2l2.4,0.7l2.9,1l0.5,0.2h0.5l0.2,0.2h0.5h0.2h0.2l0.5,0.2h0.2h0.2h0.2l2.6,0.2h0.2h0.2h1.9h0.5h1.9h0.5
		l2.2,0.2h0.5l3.1,0.2h1.7h0.2v0.2h0.2l1.4,0.2l0.2,0.2l1.7,0.5h0.7l0.2,0.2l1.9,0.5h0.2h0.2l1.7,0.7l0.5,0.2l1.2,0.5l0.7,0.2l2.4,1
		l-1,2.6l-0.7,2.2l-0.5,5.3l-10.1,21.1v0.2h-0.2v0.2h-0.2l-0.2,0.2h-0.2v0.2h-0.2v0.2h-0.2v0.2h-0.2v0.2l-1.9,2.4l-5.5,6.5l-2.2,2.9
		l-1.7-0.5l-3.1-1.2l-1.2-0.5l-5.5-1.9l-0.2-0.2l-1.4-1.9l-0.2-0.2l-0.5,0.5l-0.7,0.7l-0.2,0.5l-1,0.7l-0.5,0.7l-0.5,0.5l-0.2,0.5
		l-0.2,0.2H262v0.2l-0.2,0.2v0.2v0.5h-0.2l-0.7,1.2l-3.6-0.5H257l-1.4,4.6v0.2l-0.5,1.7l-4.8,12.2l-1.2,2.4l-0.2,0.7l-0.7,2.2
		l-0.5-0.2v0.5l-0.2,0.2v0.2v0.2v0.2v0.2l-0.2,0.5v0.2l-0.2,5.5v1v2.2v1.2l-3.4,1.7l-4.3,2.4l0.2,0.7l-0.7,0.2v0.2h-0.2h-0.2
		l-0.7-2.4l-1.4-4.3l-0.2-0.2l-0.2-0.5l-0.5-1.2h-0.2l-0.2,0.2h-0.5l-2.9,0.7l-1.9,0.2l-1.9,0.2l-2.6-1.7l-1-0.7l1.2-1.7v-0.2
		l1.2-2.2l1-1.2l-1.2-1.2l-0.2-0.2l-2.2-2.2l-0.5,0.7l-1.2,1.9l-2.6,4.6l-4.1,6.7l-3.1,5.3l-0.2,0.7l-0.5-0.2l-2.4-1.7l-6.5-4.1
		l-2.9-1.9l-3.6-1.9l-3.8-2.2l-7.9-1l-1.2,0.2h-0.7l-2.6,0.5l-7,6.2l-0.7,0.5v0.2h-0.2l-1.7,0.5l-7,2.4l-2.2,0.7h-0.2l-5.5,3.1
		l-9.6,5.5l-1.4,1H144l-11.3,6.7l-1.7,1.4l-1.4,1.4l-1,1l-4.6-4.3l-2.9-2.9l-0.7-1l-2.2-2.2h-1L115.2,520.7z"/>
	<path id="Meidling" class="st0" d="M333.1,503l-1.2,1.4l-2.2,2.4l-2.4,2.4l-1.4,1.7l-0.7,0.7l-0.2,0.5l-0.2,0.2l-0.5,0.5l-0.2,0.2
		l-0.2,0.5l-0.2,0.2h-1l-1-0.7l-1.2-0.5l-1.2-0.7l-1.2-0.2l-1.4-0.7l-5.5-1.7l-1.4-0.2l-1.4-0.2h-1.7h-0.2v0.2l-0.2,0.2v0.2
		l-0.2,0.2v0.2h-0.2l-4.1,0.7h-0.5l-0.2-1.4l-0.2-2.2l-2.4,0.7h-0.7l-1.2,0.5h-0.5v-0.7l0.2-1.2h-0.2l-1.2-0.2l-2.2-0.5l-2.4-0.5
		l-2.9-0.5l-1-0.2l-0.5-0.2l-0.7-0.2h-0.5l-0.7-0.2l-2.6-1.2h-0.2h-0.5l-1.2-0.2l-0.5-0.2h-0.7l-1-0.2l-0.7-0.2l-0.5-0.2h-0.5
		l-0.7-0.2l-0.2-0.2l-1.4-0.5l-0.2-0.2l-0.7-0.2l-1.7,1.2l-0.2,0.2l-1.7,1.4L268,503l-0.7,0.5l-0.7,1l-0.7,0.5l-1.4,1.4l-0.7,0.5
		l-1.2,1.2v0.2l-0.7,0.5l-2.6,2.9l-6.7-2.9L250,508l1-2.6l0.5-1l0.5-1.2l0.5-1.2v-0.2l0.2-0.2v-0.5l0.2-0.5l0.2-0.5l0.2-0.2l0.2-0.5
		l0.2-0.2l0.2-0.5l0.2-0.5l0.2-0.2l0.2-0.5l0.2-0.2l0.2-0.5l0.2-0.2l0.2-0.5l0.5-0.5l-2.9-0.2l-4.3-0.7l-0.7-0.2h-0.2l0.7-2.2
		l0.2-0.7l1.2-2.4l4.8-12.2l0.5-1.7v-0.2l1.4-4.6h0.2l3.6,0.5l0.7-1.2h0.2v-0.5v-0.2l0.2-0.2v-0.2h0.2l0.2-0.2l0.2-0.5l0.5-0.5
		l0.5-0.7l1-0.7l0.2-0.5l0.7-0.7l0.5-0.5l0.2,0.2l1.4,1.9l0.2,0.2l5.5,1.9l1.2,0.5l3.1,1.2l1.7,0.5l2.2-2.9l5.5-6.5l1.9-2.4v-0.2
		h0.2v-0.2h0.2v-0.2h0.2v-0.2h0.2l0.2-0.2h0.2v-0.2h0.2v-0.2l10.1-21.1l0.5-5.3l0.7-2.2l1-2.6l0.5,0.2l7.4,3.4l0.2,0.2l1.9,0.7
		l0.5,0.2l2.2,0.7l0.2,0.2h0.5h0.2h0.2l0.5,0.2h0.5h1.2h1h1h1.2h1h0.2h0.2l1.9-0.2h0.2h0.2l0.2-0.2h0.2l1-0.5h0.2h0.2l1.2-0.7
		l0.5-0.5l0.5-0.2l0.5-0.5l0.5-0.2l0.2-0.2l1.2-1.4l0.5-0.7l0.2-0.2l0.5-0.5l0.2-0.5l0.5-0.7l0.5-1v-0.2l0.2-0.5l0.2-0.5l0.5-0.5
		l0.5-0.7l0.5-0.5l0.2-0.2l0.5-0.5l0.5-0.2l0.5-0.5l0.5-0.2l0.5-0.2h0.2l0.7-0.2l1-0.2h1h2.4l0.5,0.7l0.7,1.4l4.3,7.2l3.1,5l3.4,6
		l2.9,5.3l0.2,0.2l0.2,1l-2.2,0.7l-1.4,0.5l-0.7,0.2l-0.5,0.2h-0.2v0.2l-0.7,0.5l-0.7,0.5l-0.7,0.5l-2.2,1.4l-1.9,1.4l-0.7,0.5
		l-1.9,1v-0.2l-1.7,0.7l0.5,1.7l0.5,1.7l0.2-0.2h0.2h1.9l1.9,1v2.2h1.9l1.4,0.2v0.2l1.7,2.9l0.5,1.4l0.2,0.2v0.2v0.2l0.2,0.5v0.2
		l0.2,0.2v0.5h-0.2h-0.2l-0.5,0.2h-0.7H354h-0.2l-0.5,0.2H353l-0.7,1.9l-1.2,3.1h-0.2h-0.2l-0.2-0.2h-0.2h-0.2v-0.2h-0.2h-0.2h-0.2
		l-0.2-0.2h-0.2h-0.2h-0.2l-0.2-0.2h-0.2h-0.2h-0.2l-0.2-0.2l-10.6-1.9l-0.2,0.5l-0.7,1.7l-1.7,4.1l-0.5,0.7v0.2l-0.5,1l-3.6,7.2
		l-2.2,4.6l-0.7,2.9v0.2l1.7,1.7l0.5,0.5l0.5,0.5v0.2l0.2,0.2l1.2,2.2h0.2v0.2v0.2l1,1.7v0.2l1.2,3.1L333.1,503z"/>
	<path id="Simmering" class="st0" d="M448.7,455.9l3.1,0.2l0.2-1.4l1.2-7.7l2.4-1.9l0.7-0.5l1.7-1.4l1-1.4l1.2-1.9l1.7-2.2l0.5,0.2
		l0.5,0.2l1.4-1.7v-0.2h-0.2l-0.7-0.7l1.4-1.7l0.7-1.2l-2.4-3.8l0.7-0.5l1-0.7l1.7-1.2l0.7,1l0.2,0.2l1.2,1.4h0.2v-0.2l0.2-0.2h0.2
		v-0.2h0.2v-0.2h0.2l1,0.5l5.5,2.4l2.4,1.2l0.7,0.2l3.1,1.2l1.4-2.2l2.4-3.8l0.2-0.2v-0.2h0.7l0.7,0.5h0.5l0.2,0.2l2.2-0.5v-0.2
		l0.2-0.5l0.2-0.2l0.2-0.2v-0.2l0.5-0.2h0.2l0.7,0.2l0.7,0.2l1.7,0.5h0.2l1-3.6l0.5-1.4l0.5,0.5l0.7,0.7l0.5,0.5l0.7,0.2l0.7,0.5
		l0.5,0.2l1,0.5l8.2,2.6h0.5l0.5,0.2h0.2l0.7,0.2h0.5h0.2h0.2h0.2l0.2-0.2h0.2l0.2-0.2l0.2-0.7l0.7-0.7l0.2-0.2l0.2-0.2h0.2h0.2h0.2
		h0.2h0.2l0.7,0.2l0.2-0.2l0.5-1l2.6,1l7.2,3.1l4.1,1.9l2.9,1.2l1,0.5l15.8,7l6,2.6h0.2l2.9,1.4l1.9,1l9.1,3.8l1.9,0.7l0.7,0.2
		l3.4,1.7l8.6,3.8h0.2l0.2,0.2l0.5,0.2l0.5,0.2l0.5,0.2l0.5,0.2l0.5,0.2l0.5,0.2l0.5,0.2l0.5,0.2l0.5,0.2l0.5,0.2l7.4,4.3l4.6,2.6
		l0.2,0.2l0.5,0.2h0.2l0.2,0.2l0.2,0.2l0.5,0.2l0.2,0.2h0.2l0.2,0.2l0.2,0.2l0.5,0.2l2.4,1.7l3.4,2.2l5.3,2.9l2.2,1.4l1.2,0.7
		l1.9,1.2l2.4,1l0.5,0.2l3.4,1.7l2.2,1l2.2,1.2l2.4,1.4l2.2,1.2h0.2v0.2l2.4,1.4l1.2,0.5l3.4-3.4l0.5,0.2l1.7,1l2.2,1.4l1.7,1.2
		l8.2,5.5l3.4,2.2l1.7,1l13,8.4l0.2,0.2l-0.2,0.2l-4.3,1.2l-5,1.4l-3.4,1h-0.2h-0.2l-0.2,0.2l-9.6,2.4l-6.5,1.4l-0.7-1.2l-3.4-1.9
		l-1.9-1.4l-0.7-0.7l-0.7-0.5l-0.2-0.2l-1.9-1.4l-0.7,0.5l-1,0.7l-0.2,0.2l-0.7,0.7l-2.4,2.9l-1.2,1.4l-0.2,0.2l-0.2,0.2l-0.2,0.5
		l-0.2,0.2l-1,1l-0.2,0.2l-1.9,1.7l-1.2-0.5l-1.4-0.2l-1-0.2l-3.1-1h-0.2l-8.6-2.2v0.2l0.5,1h-0.2l-0.7-0.2l-2.6-1l-1-0.7v0.2
		l0.2,1.9l-0.2,1.4l-0.2,1.2l-0.5,1l-1,1.9l-0.5,0.7l-1.7,1.7l-1.4,1.4l-1,1l-0.5,0.2l-0.5,0.7l-0.7,0.7l-0.5,0.5l-0.7,0.5l-0.2,0.5
		l-0.2,0.5l-2.4,2.4l-1.2,1.2l-0.7,0.7l-2.2,2.2l-0.5,0.5l-1.7,1.7l-0.2,0.2l-4.1,4.3l-0.5,0.5l0.7,0.7h0.2l0.2,0.2l-0.5,0.5
		l-2.4,2.6l-1.4,1.7l-0.5,0.5l-3.1,3.1l-2.2,1.4l-2.6,1.9l-3.8,2.9l-2.9,3.1h-0.2l-0.2,0.2l-0.5,0.5l-1.4,1l-1,0.5l-0.7,0.5
		l-0.7,0.2l-0.7,0.5l-0.7,0.2l-2.9,0.2l-0.5,0.2h-1.2h-0.2l-9.1,0.7l-3.4,0.2l-2.2,0.2l-6.2,0.2l-7.7,0.7l-2.2-5l-0.2-0.5l-1-2.4
		l-0.2-0.5l-0.7-1.7l-1-1.9l-0.2-0.5l-0.7-2.2l-1.7-3.8l-0.2-0.2l-3.8-8.4l-0.5-0.5l-1.4-2.2l-1.7-1.9l-1.9-2.4l-1.7-2.4v-0.2
		l-1.7-2.2l-1.4-1.9l-3.1-4.1l-1.9-2.4l-5-6.2L483.5,496l-0.2-0.2l-5.3-7l-5.8-7.4l-0.7-1l-0.2-0.2l-1.4-1.7l-0.7-1l-1-1l-2.2-2.2
		l-0.5-0.5l-3.1-3.4l-8.4-8.4l-1.9-2.2v-0.5l-1.2-1.2l-0.2-0.5l-1.2-1l-0.5-0.5L448.7,455.9L448.7,455.9z"/>
	<path id="Favoriten" class="st0" d="M391.1,591.8l1-4.1v-0.2l0.7-3.6h0.5h0.2l0.7-3.6l0.5-1l0.2-1.7l2.6-6.2l0.5-0.2l2.2-5.8
		l0.7-1.9v-0.2h-0.5h-0.2l-0.5-0.2l1.4-3.8l1.2-3.1l1-2.6l0.7-1.9l0.2-0.7l0.2,0.2l0.7,0.7l0.7,0.2l1.7,0.5l2.9-6.7v-0.2l2.6-8.4
		l-1.9-0.7l-2.9-1h-0.5h-0.2h-0.2l-5-1.9l-2.6-1.2l-3.4-1.2l-6.2-2.2l-6.2-2.4l-0.7-0.2l-1.4-0.2l-0.5-0.2l-0.7-0.2l-1.2-0.2h-1.2
		h-3.1l-2.2-0.2l-5.8-0.2l-3.8-0.2l-4.1-0.2l-3.1-0.2l-5.3-1.4l-3.1-0.7l-0.7-0.2l-2.4-0.7l-1-0.2l-1.2-0.7l-1-0.7l-1-0.5l-1-1
		l-0.2-0.2l-0.2-0.5l-0.2-0.2l-0.5-1l-0.7-1l-1.2-3.4l-0.7-2.4l-0.7-1.4l-1.9-4.8l-0.2-0.2l-1.2-3.1v-0.2l-1-1.7v-0.2v-0.2h-0.2
		l-1.2-2.2l-0.2-0.2v-0.2l-0.5-0.5l-0.5-0.5l-1.7-1.7v-0.2l0.7-2.9l2.2-4.6l3.6-7.2l0.5-1v-0.2l0.5-0.7l1.7-4.1l0.7-1.7l0.2-0.5
		l10.6,1.9l0.2,0.2h0.2h0.2h0.2l0.2,0.2h0.2h0.2h0.2l0.2,0.2h0.2h0.2h0.2v0.2h0.2h0.2l0.2,0.2h0.2h0.2l1.2-3.1l0.7-1.9h0.2l0.5-0.2
		h0.2h0.5h0.7l0.5-0.2h0.2h0.2V466l-0.2-0.2v-0.2l-0.2-0.5v-0.2v-0.2l-0.2-0.2l-0.5-1.4l-1.7-2.9v-0.2l-1.4-0.2h-1.9v-2.2l-1.9-1
		H346h-0.2l-0.2,0.2l-0.5-1.7l-0.5-1.7l1.7-0.7v0.2l1.9-1l0.7-0.5l1.9-1.4l2.2-1.4l0.7-0.5l0.7-0.5l0.7-0.5v-0.2h0.2l0.5-0.2
		l0.7-0.2l1.4-0.5l2.2-0.7l1.2-0.2l0.5-0.2l3.1-0.2l3.4-0.5h1.7l0.7-0.2l0.7-0.2h0.2h0.2h0.2h0.2v-0.2h0.2h0.5l1.7-0.7l0.7-0.2
		l1.7-0.7l1.4-0.5l1.2-0.5h0.2l0.2-0.2l1.9-0.7l0.5-0.2l3.8-2.2l1.7-1l0.5-0.2l1.9-1l0.7-0.5h0.2l1.9-1l0.2-0.2h0.2l1.9-1l1.4-0.7
		l5.3-2.6h0.2h0.2h0.2l0.7-0.2l1.9-0.7l0.5-0.2l-0.2-1.4l0.2-0.2V426v-0.2l0.2-0.2l4.8-2.2l0.2-0.2h0.5l5.5-2.6l0.7-0.2l2.4-1
		l0.5,0.7l0.7,2.2v0.2h0.2v0.2l0.2,0.2v0.2l0.2,0.2l1.2,1.4l0.2,0.5l1,1.2l1.4,1.9l0.2,0.2v0.2l0.2,0.2v0.2v0.2l0.2,0.2v0.5l0.7,1.7
		l1.4,2.4l8.9,10.8l2.4,2.6l4.1,4.3l2.9,2.6l1,1v0.2l0.2,0.5l0.5,0.5l1.2,1l0.2,0.5l1.2,1.2v0.5l1.9,2.2l8.4,8.4l3.1,3.4l0.5,0.5
		l2.2,2.2l1,1l0.7,1l1.4,1.7l0.2,0.2l0.7,1l5.8,7.4l5.3,7l0.2,0.2l11.8,15.4l5,6.2l1.9,2.4l3.1,4.1l1.4,1.9l1.7,2.2v0.2l1.7,2.4
		l1.9,2.4l1.7,1.9l1.4,2.2l0.5,0.5l3.8,8.4l0.2,0.2l1.7,3.8l0.7,2.2l0.2,0.5l1,1.9l0.7,1.7l0.2,0.5l1,2.4l0.2,0.5l2.2,5h-0.2h-0.7
		l-2.6,0.2h-2.4l-0.5,11.3l-0.2,3.4v0.7l0.2,2.4v0.2v0.2l1,1.9h0.5l0.7-0.2l0.2,2.9v0.7v1v1.4v1.4v2.2v0.2v0.2v0.2v0.5v2.6v1v0.2
		l0.2,1.7l0.2,1.9l0.2,1.7l1.7,3.8l1,2.2l0.2,0.5l0.7,1.9l1.4,3.8l-1.4-0.5L526,616l-4.3-1l-0.7-0.2l-2.4-0.5h-1l-1.9-0.5l-0.5-0.2
		h-0.5l-1.9-0.7l-0.5-0.2h-0.5l-0.7-0.2l-3.8-1.4l-0.2-0.2l-1.4-0.7h-0.2l-0.5-0.2l-0.7-0.5l-1-0.5l-1.2-0.7l-0.7,1.4l-0.5,1.2
		l-0.2,0.7l-0.2,0.2l-0.2,0.2l-0.2,0.5l-0.7,0.7l-1.2,1.4l-0.5,0.5l-0.2,0.2l-7.9,0.2l-8.9,0.5l0.2,1.2l0.5,1.4l0.2,0.5l0.2,0.7
		l1,2.2h-0.2l-4.3,0.5l-4.3,0.7l-0.2-0.7l-0.2-0.7l-0.2-0.7l-0.2-1.2l-0.5-1.4l-0.5-1.4l-0.2-0.2v-0.2l-0.5-0.5l-0.5-0.2l-0.2-0.2
		l-0.5-0.2h-0.2l-1-0.5l-0.5-0.2l-1-1.7l0.2-0.7v-0.5v-0.5H467l-3.4-1l-2.6-0.7l-3.8-1.2l-0.5-0.2l-2.6-0.7l-4.6-1.2l-1.2-0.2
		l-1.2-0.2l-0.7-0.2l-4.1-1l-1.9-0.5v-0.2v-0.5l-0.5-0.2l-0.2-0.2l-0.5-0.2l-4.1-1.2l-5.8-1.9l-1.7-0.5l-2.9-0.5l-2.2-0.2l-2.6-0.2
		l-2.2-0.5h-0.5l-1.9-0.5l-3.6-0.5l-5.3-0.2l-3.8-0.5l-4.8-1.2l-1-0.2h-0.7l-1.4-0.5l-3.1-1.2L391.1,591.8z"/>
	<path id="Alsergrund" class="st0" d="M368.1,291.8l0.5-0.5h0.2l0.7,0.7v-0.2h0.2h0.2v-0.2h0.2v-0.2h0.2v-0.2h0.2v-0.2h0.2v-0.2
		l0.2-0.2v-0.2h0.2l0.2-1l0.5-0.7v-0.7h0.2v-0.2v-0.2l0.5-2.4l0.7-4.3v-0.2h0.2V280v-0.2h0.2h0.2v-0.2h0.2h0.2h3.6l4.8-0.2v0.2v0.2
		v0.2l-0.2,0.2v0.2v0.2v0.2v0.2l-0.2,0.2v0.2v0.2v0.2v0.2v0.2v0.2h-0.2v0.2v0.2v0.2v0.2v0.2v0.2v0.2v0.2l-0.2,0.2v0.2v0.2v0.2v0.2
		v0.2v0.2v0.2v0.2v0.2v0.2v0.2v0.2h0.2v0.2v0.2v0.2v0.2v0.2l0.2,0.2v0.2v0.2v0.2l0.2,0.2v0.2v0.2v0.2h0.2v0.2v0.2v0.2v0.2h0.2
		l2.2,6.5v0.2h0.2v0.2v0.2v0.2h0.2v0.2v0.2h0.2v0.2v0.2h0.2v0.2v0.2h0.2v0.2v0.2h0.2v0.2l0.2,0.2v0.2h0.2v0.2l0.2,0.2v0.2h0.2v0.2
		l0.2,0.2v0.2h0.2v0.2h0.2v0.2l1,1.2l1,1h0.2l1.4,1.4l0.2,0.5l0.2,0.2v0.2h0.2v0.2h0.2v0.2l0.2,0.2l0.5,1.2l0.2,0.2v0.2v0.2h0.2v0.2
		v0.2l0.2,0.2v0.2v0.2l0.2,0.2v0.2v0.2v0.2l0.2,0.2v0.2v0.2v0.2v0.2v0.2l0.2,0.2v0.2v0.2v0.2v0.2v0.2v0.2v0.2v0.2v0.2v0.2v0.2v0.2
		v0.2v0.2v0.2v0.2v0.2v0.2v0.2v0.2v0.2v0.2v0.2v0.2v0.2v0.2v0.2l0.2,0.5v0.2v0.2v0.2v0.2v0.2v0.2v0.2v0.2h0.2v0.2v0.2v0.2v0.2v0.2
		l0.2,0.2v0.2v0.2v0.2l0.2,0.2v0.2v0.2l0.5,0.7l0.2,0.2l0.2,0.2l0.2,0.5v0.2h0.2v0.2l0.2,0.2l0.2,0.2l0.5,0.7l1,0.7l-1.4,1.7
		l-14.2,9.8l-3.1,2.2l-1.7-0.2l-6-1.2l-1.2-1v-0.2l-3.8-0.2l-3.1-0.2l-2.4-0.2l-4.6-0.7l-5-0.5l-1,0.2H352l-7.7,0.5h-1.2l2.2-6
		l0.2-0.5l0.2-1.2l0.2-0.2v-0.2v-0.2l0.2-1l0.2-0.2v-0.2H346l2.4-9.1v-0.2l0.5-0.5l0.2-0.2l6-2.4h0.2v0.2h0.2v0.2l0.2-0.2h0.2
		l0.2-0.2h0.2l0.2-0.2h0.2v-0.2h0.2l0.2-0.2l0.2-0.2l0.2-0.2l0.2-0.2l0.2-0.5v-0.2l0.2-0.5l0.2-0.2V315v-0.2l0.2-0.5l0.2-2.9l1-5.8
		l1-6.7v-0.7l0.2-0.5v-0.2v-0.2h0.2V297v-0.2l0.2-0.2v-0.2l0.5-0.5v-0.2h0.2l0.5-0.5v-0.2h0.2l1.4-1.2l1-0.5l0.5-0.2l0.2-0.2h0.2
		l0.2-0.2l0.7-0.7L368.1,291.8L368.1,291.8z"/>
	<path id="Josefstadt" class="st0" d="M340,349.4v-0.2l0.2-0.5l0.2-1l0.5-1.2l1.9-5.5l0.2-0.2h1.2l7.7-0.5h0.2l1-0.2l5,0.5l4.6,0.7
		l2.4,0.2l3.1,0.2l3.8,0.2v0.2l1.2,1l-0.2,1.9l-1.4,9.4l-0.5,3.1l-0.2,2.2v0.7l0.5,2.4v0.2v0.2v0.2h0.2v0.2v0.2l0.2,0.2l0.2,0.5
		l-7,1.4H365l-1.4,0.2l-4.1-0.2l-2.6-0.7l-4.6-1.4l-2.6-0.7l-9.8-3.1h-0.2l-1.2-0.5l0.2-0.2v-0.2l0.2-0.2v-0.2v-0.2l0.2-0.2V358
		v-0.2v-0.2v-0.2l0.2-0.5v-0.5l0.2-3.6v-0.5V352v-0.2v-0.7v-0.2l0.2-1L340,349.4z"/>
	<path id="Neubau" class="st0" d="M335.7,372.6l-0.2-3.6v-0.5v-0.2v-0.2v-0.2v-0.2v-0.2v-0.2v-0.2v-0.2h0.2v-0.2v-0.2v-0.2l0.2-0.2
		v-0.2l1.7-4.3l0.5-1l0.2-0.5l1.2,0.5h0.2l9.8,3.1l2.6,0.7l4.6,1.4l2.6,0.7l4.1,0.2l1.4-0.2h0.2l7-1.4l4.8,5.3l1.9,2.2l1.9,2.2
		l2.4,2.6l-0.7,1l-1.2,1.7h-0.2v0.2h-0.2v0.2h-0.2v0.2h-0.2v0.2h-0.2v0.2h-0.2l-0.2,0.2h-0.2v0.2h-0.2l-0.2,0.2h-0.2h-0.2v0.2h-0.2
		H378l-1.7,0.5l-4.6,1.7l-4.1,1.9l-1.2,0.7l-2.9,1.4l-2.2,1.4l-0.5,0.2l-2.9,1.7l-2.2,1l-2.2,0.7l-1.4,0.5l-2.6,0.7l-4.6,1.2l-3.8,1
		l-0.2,0.2l-0.5,0.2l-0.7-2.4l-0.7-2.4l-0.5-2.2v-0.5l-0.2-0.5l-0.5-1.7v-0.5l-0.5-1.4v0.2l-0.5-2.4V383l-0.7-3.1l-0.2-1.9v-0.5
		l-0.2-3.8L335.7,372.6L335.7,372.6z"/>
	<path id="Mariahilf" class="st0" d="M344.8,418.3h-2.4h-1l-1,0.2l-0.7,0.2h-0.2l-1-1.4l-2.2-5.3l-0.2-0.7l0.5-1.4l0.5-1.4l0.5-0.7
		l2.2-6.2l0.7-2.9h0.2v-0.2v-0.2l-0.2-1v-0.2l0.5-0.2l0.2-0.2l3.8-1l4.6-1.2l2.6-0.7l1.4-0.5l2.2-0.7l2.2-1l2.9-1.7l0.5-0.2l2.2-1.4
		l2.9-1.4l1.2-0.7l4.1-1.9l4.6-1.7l1.7-0.5h0.2h0.2v-0.2h0.2h0.2l0.2-0.2h0.2v-0.2h0.2l0.2-0.2h0.2v-0.2h0.2v-0.2h0.2v-0.2h0.2v-0.2
		h0.2v-0.2h0.2l1.2-1.7l0.7-1l0.2,0.5l1.7,1.2l1.4,1.2l1.2,1h0.2l1.7,1.9l0.2,0.2l1.9,2.2l-0.2,0.5l-0.2,0.2l-0.2,0.2l-0.5,0.5
		l-3.4,2.6l-0.2,0.2l-0.7,0.7l-0.5,0.2l-0.2,0.2l-1,1l-0.7,0.5l-0.5,0.2l-0.2,0.2H383l-0.2,0.2h-0.2l-0.5,0.2l-0.2,0.2h-0.2
		l-0.5,0.2l-1,0.2l-0.5,0.2h-0.5l-0.2,0.2l-0.2-0.5l-1,0.2l-0.7,0.2l-2.6,0.7h-0.2h-0.2v0.2h-0.2h-0.2l-0.2,0.2h-0.2l-0.2,0.2h-0.2
		l-0.2,0.2l-0.2,0.2h-0.2l-0.2,0.2l-0.2,0.2l-0.2,0.2l-0.2,0.2l-0.2,0.2l-0.2,0.2l-0.2,0.2v0.2l-0.2,0.2v0.2l-0.2,0.2v0.2l-0.2,0.2
		v0.2v0.2v0.2h-0.2v0.2l0.2,1.4v0.5v0.2v0.5v1.2v0.2v0.2v0.2v0.2v0.2v0.2v0.2v0.2v0.2l-0.2,0.2v0.2v0.2v0.2h-0.2v0.2v0.2v0.2h-0.2
		l-0.2,1l-0.2,0.2v0.2l-0.7,1v0.2v0.2l-1,1.2h-0.2v0.2l-0.5,0.7h-0.2v0.2h-0.2v0.2H365l-0.2,0.2h-0.2v0.2h-0.2l-0.2,0.2h-0.2v0.2
		h-0.2h-0.2l-0.2,0.2h-0.2h-0.2v0.2h-0.2h-0.5l-4.3,1.2l-2.4,0.7h-0.5l-2.2,0.5l-0.2,0.2H352h-0.2h-0.2l-2.6,0.2h-0.7l-3.1,0.5
		L344.8,418.3L344.8,418.3z"/>
	<path id="Margareten" class="st0" d="M360.2,445.1l-0.2-1l-0.2-0.2l-2.9-5.3l-3.4-6l-3.1-5l-4.3-7.2l-0.7-1.4l-0.5-0.7h0.2l3.1-0.5
		h0.7l2.6-0.2h0.2h0.2h0.2l0.2-0.2l2.2-0.5h0.5l2.4-0.7l4.3-1.2h0.5h0.2v-0.2h0.2h0.2l0.2-0.2h0.2h0.2v-0.2h0.2l0.2-0.2h0.2v-0.2
		h0.2l0.2-0.2h0.2v-0.2h0.2V413h0.2l0.5-0.7V412h0.2l1-1.2v-0.2v-0.2l0.7-1v-0.2l0.2-0.2l0.2-1h0.2v-0.2v-0.2v-0.2h0.2V407v-0.2
		v-0.2l0.2-0.2V406v-0.2v-0.2v-0.2v-0.2v-0.2v-0.2v-0.2v-0.2v-1.2v-0.5v-0.2v-0.5l-0.2-1.4V400h0.2v-0.2v-0.2v-0.2l0.2-0.2v-0.2
		l0.2-0.2v-0.2l0.2-0.2v-0.2l0.2-0.2l0.2-0.2l0.2-0.2l0.2-0.2l0.2-0.2l0.2-0.2l0.2-0.2h0.2l0.2-0.2l0.2-0.2h0.2l0.2-0.2h0.2l0.2-0.2
		h0.2h0.2V395h0.2h0.2l2.6-0.7l0.7-0.2l1-0.2l0.2,0.5l3.1,5.5l1.9,1.9l-0.2,0.7l4.3,5l-1.2,2.4l-2.4,3.6l4.1,5.3l1,1l1.9,2.9l3.8,6
		l2.2,3.1l-1.4,0.7l-1.9,1h-0.2l-0.2,0.2l-1.9,1h-0.2l-0.7,0.5l-1.9,1l-0.5,0.2l-1.7,1l-3.8,2.2l-0.5,0.2l-1.9,0.7l-0.2,0.2h-0.2
		l-1.2,0.5l-1.4,0.5l-1.7,0.7l-0.7,0.2l-1.7,0.7h-0.5h-0.2v0.2h-0.2h-0.2h-0.2h-0.2l-0.7,0.2l-0.7,0.2h-1.7l-3.4,0.5l-3.1,0.2
		l-0.5,0.2L360.2,445.1z"/>
	<path id="Wieden" class="st0" d="M397.4,431.7l-2.2-3.1l-3.8-6l-1.9-2.9l-1-1l-4.1-5.3l2.4-3.6l1.2-2.4l-4.3-5l0.2-0.7l-1.9-1.9
		l-3.1-5.5l0.2-0.2h0.5l0.5-0.2l1-0.2l0.5-0.2h0.2l0.2-0.2l0.5-0.2h0.2l0.2-0.2h0.2l0.2-0.2l0.5-0.2l0.7-0.5l1-1l0.2-0.2l0.5-0.2
		l0.7-0.7l0.2-0.2l3.4-2.6l0.5-0.5l0.2-0.2l0.2-0.2v0.5l1.2-1h0.2v-0.2l0.7-0.5l1-0.7v-0.2h0.2l0.2-0.2h0.2l0.2-0.2h0.2h0.2l0.2-0.2
		h0.2h0.2h0.7h0.2h0.2h0.2h0.2l0.2,0.2h0.2l0.5,0.2l0.7,0.2l1,0.5l0.7,0.2l1.7,0.5l0.5,0.2l0.2,0.2h0.7l1.7,0.7h0.5l2.4-1l0.5,1.2
		l-0.7,3.4v0.2v0.2v0.2v0.2v0.2v0.2v0.2v0.2l1,2.2l2.6,6.5v0.2h0.2v0.2v0.2h0.2v0.2l1,1.4l1.4,2.6v0.2h0.2v0.2v0.2l1.2,2.2v0.2v0.2
		l0.2,0.2l3.6,9.6l-0.2,1l-2.4,1l-0.7,0.2l-5.5,2.6h-0.5l-0.2,0.2l-4.8,2.2l-0.2,0.2v0.2v0.2l-0.2,0.2l0.2,1.4l-0.5,0.2l-1.9,0.7
		l-0.7,0.2h-0.2h-0.2h-0.2L397.4,431.7z"/>
	<path id="Landstraße" class="st0" d="M420.9,419.2l0.2-1l-3.6-9.6l-0.2-0.2v-0.2v-0.2l-1.2-2.2v-0.2v-0.2h-0.2v-0.2l-1.4-2.6
		l-1-1.4v-0.2h-0.2v-0.2v-0.2H413V400l-2.6-6.5l-1-2.2v-0.2v-0.2v-0.2v-0.2v-0.2v-0.2v-0.2v-0.2l0.7-3.4l-0.5-1.2l2.9-1l5-7.7
		l2.4-2.9l0.2-0.2v-0.2l0.2-0.2l0.2-0.2v-0.2l0.2-0.2v-0.2h0.2v-0.2l1.4-2.9l4.6-9.6l0.2-0.2v-0.2v-0.2l0.2-0.2v-0.2v-0.2v-0.2
		l0.2-1.4l0.5-3.4v-0.7v-0.2l0.5-1.2v-0.2l0.2-0.2l2.9-1.9l1.7-0.7l1.4-0.5l1.7-0.2h1.7l1.7,0.5l1,0.2l0.5,0.2h0.2h0.2v0.2l0.7,0.2
		l0.7,0.2l0.2,0.2l0.7,0.5l0.2,0.2h0.2v0.2h0.2v0.2h0.2l0.2,0.2l0.2,0.2l0.2,0.2l0.2,0.2v0.2h0.2v0.2h0.2v0.2v0.2h0.2v0.2l0.2,0.2
		v0.2l0.2,0.2v0.2l1.7,3.6v0.5l0.2,0.5l0.2,0.5l0.2,0.5v0.2l0.2,0.5v0.5l0.2,0.5v0.5l0.2,0.5v0.5l0.2,0.5v0.5v0.5l0.2,0.5l0.2,2.4
		l0.5,3.8v0.2l0.2,0.2v0.2v0.2v0.2l0.2,0.2v0.2v0.2l0.2,0.2v0.2v0.2h0.2v0.2v0.2h0.2v0.2l0.2,0.2v0.2l0.2,0.2v0.2l0.2,0.2l0.2,0.2
		l0.2,0.2v0.2l1.2,1l1.2,1l1.2,0.7l1.2,0.2l3.4,1l0.7,0.2l1.9,0.5l1.9,0.7h0.5l1.7,1l0.2,0.2l1.2,1l1.2,1.2l1.2,1.7l0.5,1l1,1.9
		l0.5,1.4l0.5,0.7l1,2.2v0.2l0.2,0.5l0.2,0.2l0.2,0.2v0.5l0.2,0.2l0.2,0.5l0.2,0.2l0.2,0.2l0.2,0.2l0.2,0.5l0.5,0.5l0.2,0.2l0.5,0.5
		l0.2,0.2l0.5,0.5l0.2,0.2l0.2,0.5l0.5,0.2l0.2,0.5l0.5,0.2l0.5,0.5l0.2,0.2l0.5,0.5l0.2,0.2l14.2,12.5l2.6,2.2l6,3.6l9.8,4.6
		l1.7,0.7l-0.5,1l-0.2,0.2l-0.7-0.2h-0.2h-0.2h-0.2h-0.2h-0.2l-0.2,0.2l-0.2,0.2l-0.7,0.7l-0.2,0.7l-0.2,0.2h-0.2l-0.2,0.2h-0.2
		h-0.2h-0.2h-0.5l-0.7-0.2h-0.2l-0.5-0.2h-0.5l-8.2-2.6l-1-0.5l-0.5-0.2l-0.7-0.5l-0.7-0.2l-0.5-0.5l-0.7-0.7l-0.5-0.5l-0.5,1.4
		l-1,3.6h-0.2l-1.7-0.5l-0.7-0.2l-0.7-0.2h-0.2l-0.5,0.2v0.2l-0.2,0.2l-0.2,0.2l-0.2,0.5v0.2l-2.2,0.5l-0.2-0.2h-0.5l-0.7-0.5h-0.7
		v0.2l-0.2,0.2l-2.4,3.8l-1.4,2.2l-3.1-1.2l-0.7-0.2l-2.4-1.2l-5.5-2.4l-1-0.5h-0.2v0.2h-0.2v0.2h-0.2l-0.2,0.2v0.2h-0.2l-1.2-1.4
		l-0.2-0.2l-0.7-1l-1.7,1.2l-1,0.7l-0.7,0.5l2.4,3.8l-0.7,1.2l-1.4,1.7l0.7,0.7h0.2v0.2l-1.4,1.7l-0.5-0.2l-0.5-0.2l-1.7,2.2
		l-1.2,1.9l-1,1.4l-1.7,1.4l-0.7,0.5l-2.4,1.9l-1.2,7.7l-0.2,1.4l-3.1-0.2v-0.2l-1-1l-2.9-2.6l-4.1-4.3l-2.4-2.6l-8.9-10.8l-1.4-2.4
		l-0.7-1.7v-0.5l-0.2-0.2v-0.2v-0.2l-0.2-0.2v-0.2l-0.2-0.2l-1.4-1.9l-1-1.2l-0.2-0.5l-1.2-1.4l-0.2-0.2v-0.2l-0.2-0.2v-0.2h-0.2
		v-0.2l-0.7-2.2L420.9,419.2z"/>
	<path id="Leopoldstadt" class="st0" d="M428.4,351.8l-1-1l-0.2-0.2h-0.2v-0.2h-0.2h-0.2l-1.2,0.2l-2.4,0.2l-3.8-0.2l-1.9-0.5
		l-1.4-0.2l-1.2-0.5l-1.9-1l-1.4-1.2l-0.5-0.5l-1-1.2l-0.7-1.2l-0.7-1.7l-1.7-3.4l-0.2-0.5l-0.7-1.2l-1-1.2l-1.9-2.2l-2.2-2.6
		l-0.2-0.2l-0.5-0.5l-1-0.7l-0.5-0.7l-0.2-0.2l-0.2-0.2v-0.2h-0.2v-0.2l-0.2-0.5l-0.2-0.2l-0.2-0.2l-0.5-0.7v-0.2v-0.2l-0.2-0.2
		v-0.2v-0.2v-0.2l-0.2-0.2v-0.2v-0.2v-0.2v-0.2v-0.2h-0.2v-0.2v-0.2v-0.2V323v-0.2v-0.2v-0.2V322l-0.2-0.5v-0.2v-0.2v-0.2v-0.2v-0.2
		v-0.2v-0.2v-0.2v-0.2v-0.2v-0.2v-0.2v-0.2v-0.2v-0.2v-0.2v-0.2v-0.2V317v-0.2v-0.2v-0.2V316v-0.2v-0.2v-0.2v-0.2l-0.2-0.2v-0.2
		v-0.2v-0.2v-0.2v-0.2l-0.2-0.2v-0.2v-0.2v-0.2l-0.2-0.2v-0.2v-0.2l-0.2-0.2l2.2-0.7l2.4-0.7l1.2-0.5v-1.2l0.2-0.2l3.1-4.6l0.7-0.2
		l1.7-0.7l1.9-1l6.2-3.1l3.4,2.4l2.2,1.2l1.7,1.2l3.1,5.8l0.2,0.7v0.2h0.2h0.2h0.2l2.6-1.2l6.2-5.3l0.5-1l-0.5-3.4l-1.2-1.4l-1-1.4
		H432l1.2-1.2l0.7-0.5l0.5-0.2l8.9-7l0.2-0.2l5-3.8l-0.2-0.2l1.7-1.2l2.2-1.7l1.9-1.4l1.4,1.7l1,1.4l0.5,0.5l1.2,1.7l2.4,2.9
		l1.9,2.4l1.9,2.4l1.4,1.9l1.9,1.9l2.2,2.9l3.6,4.1l0.5,0.2l1.7,1.9l0.2,0.5l3.4,3.8l1.2,1.4l2.2,2.2l10.1,11.3l2.9,3.1l3.4,3.6
		l5.5,6.2l4.3,4.3l8.2,8.9l4.8,5l7.4,7.9l5.5,5.8l7.2,7.4l5.8,5.8l6.5,6.7l0.7,0.5l5.8,6l7.2,7.2l6,6l7,7l1.7,1.9l0.5,0.2l1.4,1.7
		l11,10.8l12,11.5l1.9,2.2l9.6,9.1l1.7,1.4l0.2,0.5l0.5,0.2l4.3,4.3l7.7,7l1.9,1.9l1.7,1.4l2.2,1.9l1.9,1.7l0.5,0.5l4.6,3.8l1.9,1.7
		l0.5,0.5l-2.9,2.9l-3.4,3.4l-1.2-0.5l-2.4-1.4V484h-0.2l-2.2-1.2l-2.4-1.4l-2.2-1.2l-2.2-1l-3.4-1.7l-0.5-0.2l-2.4-1l-1.9-1.2
		l-1.2-0.7L618,473l-5.3-2.9l-3.4-2.2l-2.4-1.7l-0.5-0.2l-0.2-0.2l-0.2-0.2h-0.2l-0.2-0.2l-0.5-0.2l-0.2-0.2l-0.2-0.2h-0.2l-0.5-0.2
		l-0.2-0.2l-4.6-2.6l-7.4-4.3l-0.5-0.2l-0.5-0.2l-0.5-0.2l-0.5-0.2l-0.5-0.2l-0.5-0.2l-0.5-0.2l-0.5-0.2l-0.5-0.2l-0.5-0.2l-0.2-0.2
		h-0.2l-8.6-3.8l-3.4-1.7l-0.7-0.2l-1.9-0.7l-9.1-3.8l-1.9-1l-2.9-1.4h-0.2l-6-2.6l-15.8-7l-1-0.5l-2.9-1.2l-4.1-1.9l-7.2-3.1
		l-2.6-1l-1.7-0.7l-9.8-4.6l-6-3.6l-2.6-2.2L483.6,401l-0.2-0.2l-0.5-0.5l-0.2-0.2l-0.5-0.5l-0.5-0.2l-0.2-0.5l-0.5-0.2l-0.2-0.5
		l-0.2-0.2l-0.5-0.5l-0.2-0.2l-0.5-0.5l-0.2-0.2l-0.5-0.5l-0.2-0.5l-0.2-0.2l-0.2-0.2l-0.2-0.2l-0.2-0.5l-0.2-0.2v-0.5l-0.2-0.2
		l-0.2-0.2l-0.2-0.5v-0.2l-1-2.2l-0.5-0.7l-0.5-1.4l-1-1.9l-0.5-1l-1.2-1.7l-1.2-1.2l-1.2-1l-0.2-0.2l-1.7-1H467l-1.9-0.7l-1.9-0.5
		l-0.7-0.2l-3.4-1l-1.2-0.2l-1.2-0.7l-1.2-1l-1.2-1v-0.2l-0.2-0.2l-0.2-0.2l-0.2-0.2v-0.2l-0.2-0.2v-0.2l-0.2-0.2v-0.2h-0.2v-0.2
		v-0.2h-0.2v-0.2v-0.2l-0.2-0.2v-0.2V371l-0.2-0.2v-0.2v-0.2V370l-0.2-0.2v-0.2l-0.5-3.8l-0.2-2.4l-0.2-0.5v-0.5v-0.5l-0.2-0.5v-0.5
		l-0.2-0.5v-0.5l-0.2-0.5V359l-0.2-0.5v-0.2l-0.2-0.5l-0.2-0.5l-0.2-0.5v-0.5l-1.7-3.6v-0.2l-0.2-0.2V352l-0.2-0.2v-0.2h-0.2v-0.2
		v-0.2h-0.2v-0.2h-0.2v-0.2l-0.2-0.2l-0.2-0.2l-0.2-0.2l-0.2-0.2h-0.2v-0.2h-0.2v-0.2h-0.2l-0.2-0.2l-0.7-0.5l-0.2-0.2l-0.7-0.2
		l-0.7-0.2v-0.2h-0.2h-0.2l-0.5-0.2l-1-0.2l-1.7-0.5h-1.7l-1.7,0.2l-1.4,0.5l-1.7,0.7l-2.9,1.9l-0.2,0.2v0.2l-0.5,1.2L428.4,351.8
		L428.4,351.8z"/>
	<path id="Innere_Stadt" class="st0" d="M391.6,385.6l0.2-0.5l-1.9-2.2l-0.2-0.2l-1.7-1.9h-0.2l-1.2-1l-1.4-1.2l-1.7-1.2l-0.2-0.5
		l-2.4-2.6l-1.9-2.2L377,370l-4.8-5.3l-0.2-0.5l-0.2-0.2v-0.2v-0.2h-0.2v-0.2V363v-0.2l-0.5-2.4v-0.7l0.2-2.2l0.5-3.1l1.4-9.4
		l0.2-1.9l6,1.2l1.7,0.2l3.1-2.2l14.2-9.8l1.4-1.7l0.5,0.5l0.2,0.2l2.2,2.6l1.9,2.2l1,1.2l0.7,1.2l0.2,0.5l1.7,3.4l0.7,1.7l0.7,1.2
		l1,1.2l0.5,0.5l1.4,1.2l1.9,1l1.2,0.5l1.4,0.2l1.9,0.5l3.8,0.2l2.4-0.2l1.2-0.2h0.2h0.2v0.2h0.2l0.2,0.2l1,1v0.7l-0.5,3.4l-0.2,1.4
		v0.2v0.2v0.2l-0.2,0.2v0.2v0.2l-0.2,0.2l-4.6,9.6l-1.4,2.9v0.2h-0.2v0.2l-0.2,0.2v0.2l-0.2,0.2l-0.2,0.2v0.2l-0.2,0.2l-2.4,2.9
		l-5,7.7l-2.9,1l-2.4,1h-0.5l-1.7-0.7h-0.7l-0.2-0.2l-0.5-0.2l-1.7-0.5l-0.7-0.2l-1-0.5l-0.7-0.2l-0.5-0.2h-0.2l-0.2-0.2h-0.2h-0.2
		h-0.2h-0.2h-0.7h-0.2h-0.2l-0.2,0.2H396h-0.2l-0.2,0.2h-0.2l-0.2,0.2h-0.2v0.2l-1,0.7l-0.7,0.5v0.2h-0.2l-1.2,1L391.6,385.6
		L391.6,385.6z"/>
</g>
<g id="headline">
	<rect x="35" y="30" class="st1" width="253" height="64.1"/>
	<text transform="matrix(1 0 0 1 35 40.3821)" class="st2 st3">SELECTED NUMBERS FOR</text>
	<text transform="matrix(1 0 0 1 35 82.3821)" class="st4 st5 st6">VIENNA</text>
</g>
<g id="button">
	<g id="button_popdens" onclick="showTopic(1)">
		<rect x="35" y="109.8" class="st7" width="190" height="16"/>
		<circle class="st8" cx="39.5" cy="117.2" r="4.5"/>
		<circle id="bullet_popdens" class="st9" cx="39.5" cy="117.2" r="2.7"/>
		<rect x="49.8" y="112.7" class="st1" width="166.1" height="12.6"/>
		<text transform="matrix(1 0 0 1 49.8286 121.3157)" class="st2 st10">Population density</text>
	</g>
	<g id="button_age" onclick="showTopic(2)">
		<rect x="35" y="127.8" class="st7" width="190" height="16"/>
		<circle class="st8" cx="39.5" cy="135.2" r="4.5"/>
		<circle id="bullet_age" class="st9" cx="39.5" cy="135.2" r="2.7"/>
		<rect x="49.8" y="130.7" class="st1" width="166.1" height="12.6"/>
		<text transform="matrix(1 0 0 1 49.8286 139.3157)" class="st2 st10">Average age</text>
	</g>
	<g id="button_females" onclick="showTopic(3)">
		<rect x="35" y="145.8" class="st7" width="190" height="16"/>
		<circle class="st8" cx="39.5" cy="153.2" r="4.5"/>
		<circle id="bullet_females" class="st9" cx="39.5" cy="153.2" r="2.7"/>
		<rect x="49.8" y="148.7" class="st1" width="166.1" height="12.6"/>
		<text transform="matrix(1 0 0 1 49.8286 157.3157)" class="st2 st10">Rate females</text>
	</g>
	<g id="button_foreign" onclick="showTopic(4)">
		<rect x="35" y="163.8" class="st7" width="190" height="16"/>
		<circle class="st8" cx="39.5" cy="171.2" r="4.5"/>
		<circle id="bullet_foreign" class="st9" cx="39.5" cy="171.2" r="2.7"/>
		<rect x="49.8" y="166.7" class="st1" width="166.1" height="12.6"/>
		<text transform="matrix(1 0 0 1 49.8286 175.3157)" class="st2 st10">Rate foreign nationality</text>
	</g>
</g>


<g id="legend">
	<rect x="780" y="230" class="st1" width="160" height="15.8"/>
	<text id="legend_heading1" transform="matrix(1 0 0 1 780 238.592)" class="st4 st10">Legend</text>
	<text id="legend_heading2" transform="matrix(1 0 0 1 780 254.2971)" class="st4 st10">(Choose a topic first)</text>
	<text id="legend_text" transform="matrix(1 0 0 1 780 410.8577)" class="st4 st11">Mean value for Vienna:</text>
	<text id="legend_meanvalue" transform="matrix(1 0 0 1 780 424.9739)" class="st2 st11">...</text>
	<text transform="matrix(1 0 0 1 780 592.4426)" class="st2 st11">Data source: OGD Vienna, </text>
	<text transform="matrix(1 0 0 1 780 604.4426)" class="st2 st11">Bevölkerungsindikatoren Wien</text>
	<text transform="matrix(1 0 0 1 780 621.4426)" class="st2 st11">Reference year: 2011</text>
	<line class="st12" x1="825" y1="297" x2="900" y2="297"/>
	<rect x="848.7" y="284.7" class="st1" width="51.3" height="10.3"/>
	<text id="classmax1" transform="matrix(1 0 0 1 868.877 291.8787)" class="st2 st11">class 1</text>
	<line class="st12" x1="825" y1="327" x2="900" y2="327"/>
	<rect x="848.7" y="314.7" class="st1" width="51.3" height="10.3"/>
	<text id="classmax2" transform="matrix(1 0 0 1 868.877 321.8787)" class="st2 st11">class 2</text>
	<line class="st12" x1="825" y1="357" x2="900" y2="357"/>
	<rect x="848.7" y="344.7" class="st1" width="51.3" height="10.3"/>
	<text id="classmax3" transform="matrix(1 0 0 1 868.877 351.8792)" class="st2 st11">class 3</text>
	<g class="novalue">
		<rect id="boxclass1" x="780" y="275" class="st0" width="45" height="22"/>
		<rect id="boxclass2" x="780" y="305" class="st0" width="45" height="22"/>
		<rect id="boxclass3" x="780" y="335" class="st0" width="45" height="22"/>
		<rect id="boxclass4" x="780" y="365" class="st0" width="45" height="22"/>
	</g>
	<line class="st12" x1="825" y1="387" x2="900" y2="387"/>
	<rect x="848.7" y="374.7" class="st1" width="51.3" height="10.3"/>
	<text id="classmax4" transform="matrix(1 0 0 1 868.877 381.8792)" class="st2 st11">class 4</text>
</g>
<script type="text/javascript">
<![CDATA[
myDistricts = [];
myDistricts[0] = ['District', 'Population density', 'Average age', 'Rate females', 'Rate foreign nationality'];
myDistricts[1] = ['Innere_Stadt', '5873', '46.9', '52', '20.7'];
myDistricts[2] = ['Leopoldstadt', '4991', '40.2', '50.8', '28.1'];
myDistricts[3] = ['Landstraße', '11495', '41.7', '52.6', '23.5'];
myDistricts[4] = ['Wieden', '17431', '42.2', '52.9', '24.4'];
myDistricts[5] = ['Margareten', '26437', '39.9', '51.1', '28.9'];
myDistricts[6] = ['Mariahilf', '20392', '41.5', '52', '22.7'];
myDistricts[7] = ['Neubau', '18936', '40.7', '52.8', '23.5'];
myDistricts[8] = ['Josefstadt', '21787', '41.1', '51.6', '23'];
myDistricts[9] = ['Alsergrund', '13375', '41', '52.5', '24.8'];
myDistricts[10] = ['Favoriten', '5569', '40.6', '51.5', '24.6'];
myDistricts[11] = ['Simmering', '3901', '39', '51.2', '19.6'];
myDistricts[12] = ['Meidling', '10931', '40.5', '52', '24'];
myDistricts[13] = ['Hietzing', '1360', '45.7', '54.7', '12.4'];
myDistricts[14] = ['Penzing', '2516', '42.7', '52.7', '17.7'];
myDistricts[15] = ['Rudolfsheim-Fünfhaus', '18355', '39.3', '50.6', '34.1'];
myDistricts[16] = ['Ottakring', '10997', '40.4', '51.4', '28.2'];
myDistricts[17] = ['Hernals', '4646', '40.8', '51.6', '26.6'];
myDistricts[18] = ['Währing', '7564', '42', '53.8', '21.6'];
myDistricts[19] = ['Döbling', '2759', '44.6', '54.3', '17.3'];
myDistricts[20] = ['Brigittenau', '14643', '39.8', '50.9', '29.1'];
myDistricts[21] = ['Floridsdorf', '3209', '41.3', '52.2', '14'];
myDistricts[22] = ['Donaustadt', '1554', '39.8', '52.1', '12'];
myDistricts[23] = ['Liesing', '2920', '42.7', '53.1', '11.3'];

myTopics = [];
myTopics[0] = ['topic', 'classmax1', 'classmax2', 'classmax3', 'classmax4', 'classcolor1', 'classcolor2', 'classcolor3', 'classcolor4', 'min', 'max', 'average', 'topic short', 'topic long line1', 'topic long line2'];
myTopics[1] = ['popdens', 5000, 12500, 20000, 27500, '#edf8fb','#b2e2e2','#66c2a4','#238b45', 1360, 26437.2, 4132, 'Population density', 'Population per km²', ''];
myTopics[2] = ['age', 40, 42.5, 45, 47.5, '#edf8fb','#b3cde3','#8c96c6','#88419d', 39, 46.9, 41.1, 'Average age', 'Average age in years', ''];
myTopics[3] = ['female', 51.6, 52.6, 53.6, 54.7, '#f0f9e8','#bae4bc','#7bccc4','#2b8cbe', 50.6, 54.7, 52.2, 'Rate females', 'Rate of female', 'population in %'];
myTopics[4] = ['foreign', 15, 20, 25, 35, '#fef0d9','#fdcc8a','#fc8d59','#d7301f', 11.3, 34.1, 21.5, 'Rate foreign nationality', 'Rate of population', 'with foreign nationality in %'];


function showTopic(number) {
document.getElementById("legend_heading1").firstChild.nodeValue = myTopics[number][12];
document.getElementById("legend_heading2").firstChild.nodeValue = myTopics[number][13];
document.getElementById("legend_meanvalue").firstChild.nodeValue = myTopics[number][10];

for (var i = 1; i <23; i++) {
	if (myDistricts[i][number] <= myTopics[number][1]) {
		document.getElementById(myDistricts[i][0]).setAttribute('fill',myTopics[number][5]);
	} else if (myDistricts[i][number] <= myTopics[number][2]) {
		document.getElementById(myDistricts[i][0]).setAttribute('fill',myTopics[number][6]);
	} else if (myDistricts[i][number] <= myTopics[number][3]) {
		document.getElementById(myDistricts[i][0]).setAttribute('fill',myTopics[number][7]);
	} else if (myDistricts[i][number] <= myTopics[number][4]) {
		document.getElementById(myDistricts[i][0]).setAttribute('fill',myTopics[number][8]);
	} else if (myDistricts[i][number] <= myTopics[number][5]) {
		document.getElementById(myDistricts[i][0]).setAttribute('fill',myTopics[number][9]);
		}
	}

for (var i = 1; i <5; i++) {
    document.getElementById("boxclass"+[i]).setAttribute('fill',myTopics[number][i]);
    document.getElementById("classmax"+[i]).firstChild.nodeValue =myTopics[number][i];
        }

for (var i = 1; i <4; i++) {
		if (i == number) { 
			document.getElementById('bullet_' + myTopics[i][0]).setAttribute('class','show');
		} else {
			document.getElementById('bullet_' + myTopics[i][0]).setAttribute('class','hide');
		}
	}

}
]]>

</script>
</svg>
